<svg id="svg" version="1.1" xmlns="http://www.w3.org/2000/svg" xmlns:xlink="http://www.w3.org/1999/xlink" width="400" height="400" viewBox="0, 0, 400,400"><g id="svgg"><path id="path0" d="M107.400 111.950 C 98.973 114.078,93.078 120.744,91.439 130.000 C 90.557 134.979,90.646 267.378,91.533 270.200 C 94.573 279.867,100.443 285.310,109.251 286.627 C 115.342 287.538,292.789 287.293,295.800 286.370 C 302.289 284.380,308.572 277.067,310.036 269.798 C 310.840 265.808,310.880 153.253,310.078 150.237 C 308.192 143.140,302.549 136.897,296.051 134.720 L 293.400 133.832 247.182 133.616 C 202.698 133.408,200.920 133.372,199.782 132.642 C 199.132 132.225,194.370 127.614,189.200 122.397 C 184.030 117.179,179.268 112.570,178.618 112.155 C 176.835 111.017,111.838 110.830,107.400 111.950 " stroke="none" fill="#1b99f2" fill-rule="evenodd"></path><path id="path1" d="M173.930 0.410 C 173.849 0.652,171.868 0.857,169.097 0.910 C 164.323 1.001,164.031 1.071,164.880 1.920 C 165.480 2.520,165.901 2.466,159.907 2.566 C 157.106 2.613,154.676 2.804,154.507 2.990 C 154.338 3.176,154.438 3.191,154.730 3.022 C 155.161 2.773,155.168 2.863,154.763 3.510 C 154.331 4.203,153.945 4.280,151.719 4.115 C 150.195 4.003,148.960 4.101,148.648 4.360 C 148.361 4.598,147.986 4.660,147.814 4.497 C 147.641 4.333,147.625 4.605,147.777 5.100 C 148.040 5.956,147.949 6.000,145.907 6.000 C 144.726 6.000,143.518 6.225,143.221 6.500 C 142.790 6.900,142.739 6.900,142.965 6.500 C 143.120 6.225,143.057 6.000,142.824 6.000 C 142.591 6.000,142.400 6.433,142.400 6.962 C 142.400 7.854,142.283 7.908,140.792 7.708 C 139.353 7.515,139.209 7.572,139.422 8.246 C 139.651 8.969,139.641 8.970,139.192 8.267 C 138.744 7.567,138.674 7.576,137.664 8.467 C 136.638 9.372,136.629 9.373,137.365 8.500 C 138.371 7.308,137.593 7.344,136.291 8.551 C 135.589 9.201,134.950 9.441,134.268 9.311 C 133.227 9.112,132.136 10.326,132.707 11.047 C 132.861 11.241,132.736 11.183,132.430 10.917 C 131.976 10.522,131.968 10.321,132.386 9.817 C 132.809 9.308,132.793 9.200,132.298 9.200 C 131.968 9.200,131.434 9.597,131.111 10.083 C 130.630 10.809,130.138 10.969,128.362 10.983 C 126.413 10.998,126.187 11.091,126.069 11.925 C 125.957 12.712,125.771 12.813,124.818 12.604 C 123.763 12.372,122.031 13.364,122.562 13.895 C 122.672 14.005,123.053 13.804,123.410 13.448 C 124.297 12.560,124.768 12.635,124.510 13.622 C 124.315 14.368,124.095 14.419,122.148 14.176 C 120.618 13.985,120.000 14.043,120.000 14.378 C 120.000 14.636,119.789 14.717,119.532 14.558 C 119.219 14.365,119.147 14.485,119.315 14.922 C 119.631 15.747,119.375 15.896,117.400 16.034 C 115.408 16.173,114.400 16.645,114.400 17.441 C 114.400 17.872,114.162 17.978,113.600 17.800 C 113.041 17.623,112.800 17.728,112.800 18.149 C 112.800 18.947,112.034 19.394,111.530 18.890 C 111.264 18.624,111.296 18.388,111.627 18.183 C 111.947 17.985,112.022 18.041,111.838 18.338 C 111.681 18.592,111.743 18.800,111.976 18.800 C 112.209 18.800,112.400 18.530,112.400 18.200 C 112.400 17.307,111.158 17.474,110.916 18.400 C 110.757 19.006,110.370 19.200,109.316 19.200 C 108.262 19.200,107.875 19.394,107.716 20.000 C 107.519 20.751,107.093 20.988,106.232 20.825 C 106.030 20.786,106.120 21.070,106.432 21.454 C 106.795 21.901,106.819 22.045,106.500 21.853 C 106.185 21.664,106.000 21.784,106.000 22.176 C 106.000 22.519,105.709 22.800,105.353 22.800 C 104.903 22.800,104.770 22.556,104.916 21.999 C 105.031 21.559,104.962 21.300,104.763 21.423 C 104.563 21.546,104.400 21.904,104.400 22.219 C 104.400 22.573,104.058 22.754,103.500 22.695 C 102.899 22.632,102.614 22.806,102.642 23.219 C 102.666 23.578,102.330 23.865,101.842 23.901 C 99.714 24.061,99.100 24.397,99.665 25.093 C 99.972 25.472,100.001 25.634,99.734 25.474 C 99.478 25.321,99.208 25.368,99.134 25.580 C 99.060 25.792,98.337 26.009,97.526 26.063 C 96.715 26.116,96.118 26.268,96.199 26.399 C 96.572 27.003,95.595 27.635,94.168 27.714 C 92.802 27.789,92.599 27.925,92.591 28.770 C 92.587 29.303,92.362 29.813,92.091 29.903 C 91.821 29.993,91.600 29.872,91.600 29.633 C 91.600 29.395,91.408 29.200,91.173 29.200 C 90.928 29.200,90.854 29.541,91.000 30.000 C 91.240 30.757,90.690 31.054,89.459 30.834 C 88.495 30.661,87.539 31.324,87.725 32.037 C 87.894 32.682,87.764 32.759,86.862 32.546 C 86.023 32.349,85.898 32.402,86.269 32.797 C 86.906 33.477,86.508 34.353,85.662 34.132 C 84.655 33.869,82.800 34.684,82.800 35.390 C 82.800 35.921,82.074 36.201,81.100 36.047 C 80.590 35.967,80.770 37.121,81.300 37.335 C 81.575 37.446,81.350 37.554,80.800 37.574 C 78.989 37.641,78.000 38.077,78.000 38.809 C 78.000 39.335,77.781 39.468,77.176 39.310 C 76.571 39.151,76.294 39.320,76.130 39.947 C 76.002 40.437,75.586 40.800,75.153 40.800 C 74.552 40.800,74.400 41.097,74.400 42.276 C 74.400 43.653,74.361 43.700,73.827 42.976 C 73.378 42.368,73.148 42.305,72.764 42.683 C 72.377 43.064,72.386 43.302,72.807 43.808 C 73.278 44.376,73.221 44.421,72.313 44.193 C 71.729 44.046,71.172 44.121,71.020 44.368 C 70.873 44.605,70.971 44.800,71.238 44.800 C 71.540 44.800,71.449 45.104,71.000 45.600 C 70.602 46.040,70.034 46.400,69.738 46.400 C 69.442 46.400,69.200 46.670,69.200 47.000 C 69.200 47.330,68.885 47.621,68.500 47.646 C 68.115 47.672,67.620 47.734,67.400 47.785 C 67.180 47.836,66.775 47.906,66.500 47.939 C 66.225 47.973,66.000 48.270,66.000 48.600 C 66.000 48.933,65.644 49.200,65.200 49.200 C 64.667 49.200,64.400 49.467,64.400 50.000 C 64.400 50.440,64.580 50.800,64.800 50.800 C 65.020 50.800,65.200 50.941,65.200 51.114 C 65.200 51.287,64.853 51.429,64.429 51.429 C 64.006 51.429,63.757 51.270,63.877 51.076 C 63.997 50.882,63.758 50.791,63.347 50.874 C 62.894 50.966,62.610 51.352,62.626 51.856 C 62.644 52.463,62.459 52.636,61.933 52.498 C 61.179 52.301,60.168 54.101,60.621 54.834 C 60.745 55.035,60.657 55.200,60.424 55.200 C 60.191 55.200,60.000 55.020,60.000 54.800 C 60.000 54.580,59.808 54.400,59.573 54.400 C 59.328 54.400,59.254 54.741,59.400 55.200 C 59.641 55.958,59.085 56.256,57.851 56.031 C 57.659 55.996,57.600 56.223,57.720 56.535 C 57.986 57.229,57.282 58.006,56.618 57.752 C 56.351 57.649,56.100 57.798,56.059 58.083 C 56.018 58.367,55.913 59.140,55.825 59.800 C 55.737 60.460,55.645 61.090,55.620 61.200 C 55.596 61.310,55.392 61.085,55.168 60.700 C 54.675 59.854,53.822 59.760,54.140 60.587 C 54.264 60.910,54.165 61.298,53.921 61.449 C 53.639 61.623,53.590 61.540,53.786 61.223 C 53.999 60.877,53.864 60.770,53.347 60.874 C 52.902 60.964,52.610 61.353,52.624 61.836 C 52.640 62.399,52.399 62.640,51.836 62.624 C 51.353 62.610,50.964 62.902,50.874 63.347 C 50.773 63.848,50.881 63.997,51.201 63.799 C 51.568 63.572,51.574 63.701,51.226 64.352 C 50.677 65.377,50.322 65.474,50.687 64.500 C 50.907 63.913,50.851 63.880,50.338 64.297 C 50.002 64.570,49.608 64.675,49.463 64.530 C 49.318 64.385,49.200 64.466,49.200 64.710 C 49.200 64.953,49.380 65.264,49.600 65.400 C 50.398 65.893,49.973 66.257,48.800 66.085 C 47.736 65.929,47.600 66.024,47.600 66.921 C 47.600 67.478,47.387 68.004,47.128 68.091 C 46.868 68.177,46.446 68.867,46.191 69.624 C 45.881 70.542,45.472 71.003,44.963 71.009 C 44.326 71.016,44.220 71.269,44.321 72.541 C 44.421 73.796,44.298 74.102,43.621 74.279 C 43.170 74.397,42.800 74.822,42.800 75.223 C 42.800 75.624,42.656 76.042,42.481 76.150 C 41.911 76.502,41.077 75.698,41.329 75.040 C 41.464 74.688,41.401 74.400,41.187 74.400 C 40.974 74.400,40.800 74.670,40.800 75.000 C 40.800 75.330,40.425 75.975,39.967 76.433 C 39.508 76.892,39.254 77.387,39.401 77.533 C 39.548 77.680,40.013 77.375,40.434 76.856 C 41.023 76.129,41.200 76.062,41.200 76.564 C 41.200 76.923,40.750 77.422,40.200 77.673 C 39.650 77.923,39.200 78.370,39.200 78.664 C 39.200 79.135,38.736 79.359,37.953 79.265 C 37.817 79.249,37.709 79.722,37.714 80.318 C 37.727 82.271,37.605 82.851,37.230 82.619 C 36.642 82.255,34.927 83.207,34.480 84.144 C 33.781 85.611,33.586 86.456,34.005 86.197 C 34.222 86.063,34.400 86.323,34.400 86.776 C 34.400 87.325,34.141 87.600,33.623 87.600 C 33.061 87.600,32.889 87.378,33.000 86.800 C 33.085 86.360,32.984 86.000,32.777 86.000 C 32.570 86.000,32.400 86.270,32.400 86.600 C 32.400 86.930,32.070 87.530,31.666 87.934 C 31.196 88.404,30.949 89.194,30.980 90.128 C 31.012 91.088,30.893 91.453,30.634 91.194 C 30.028 90.588,29.083 90.719,29.335 91.374 C 29.456 91.690,29.166 92.444,28.690 93.049 C 28.214 93.654,27.788 94.399,27.743 94.705 C 27.564 95.928,27.206 96.377,26.598 96.144 C 26.109 95.956,26.004 96.115,26.134 96.851 C 26.377 98.226,25.757 99.635,25.032 99.357 C 24.314 99.081,23.859 100.508,24.151 102.118 C 24.326 103.085,24.265 103.156,23.573 102.786 C 22.782 102.362,22.659 102.499,22.773 103.667 C 22.810 104.034,22.490 104.445,22.063 104.580 C 21.175 104.862,20.752 106.014,21.226 106.860 C 21.456 107.271,21.314 107.451,20.728 107.495 C 19.651 107.577,19.526 107.736,19.351 109.239 C 19.269 109.938,18.897 110.733,18.524 111.006 C 18.111 111.308,17.813 112.138,17.762 113.126 C 17.710 114.131,17.359 115.092,16.839 115.650 C 16.378 116.145,16.000 117.042,16.000 117.643 C 16.000 119.364,15.606 120.103,14.970 119.575 C 14.319 119.035,13.775 120.661,14.180 121.937 C 14.322 122.384,14.223 122.862,13.954 123.028 C 13.652 123.215,13.582 123.154,13.762 122.862 C 14.179 122.186,13.383 122.297,12.804 122.995 C 12.512 123.347,12.418 124.017,12.574 124.637 C 12.738 125.291,12.614 126.024,12.244 126.588 C 11.803 127.262,11.768 127.608,12.106 127.946 C 12.373 128.213,12.395 128.400,12.160 128.400 C 11.940 128.400,11.564 128.204,11.325 127.965 C 11.012 127.652,10.914 127.904,10.974 128.865 C 11.080 130.535,10.859 131.200,10.200 131.200 C 9.917 131.200,9.576 131.485,9.443 131.833 C 9.065 132.816,9.149 132.940,9.817 132.386 C 10.305 131.981,10.535 131.977,10.917 132.366 C 11.183 132.636,11.220 132.816,11.000 132.765 C 9.973 132.529,9.200 133.335,9.200 134.643 C 9.200 135.733,9.043 136.000,8.400 136.000 C 7.833 136.000,7.604 136.263,7.612 136.900 C 7.623 137.704,7.668 137.725,8.032 137.100 C 8.660 136.021,9.523 136.222,9.299 137.395 C 9.194 137.943,8.962 138.300,8.782 138.189 C 8.374 137.937,7.856 138.742,7.782 139.744 C 7.751 140.160,7.296 140.826,6.769 141.223 C 6.243 141.620,5.944 142.078,6.106 142.239 C 6.268 142.401,6.400 142.343,6.400 142.109 C 6.400 141.876,6.670 141.582,7.000 141.455 C 7.400 141.302,7.600 141.472,7.600 141.966 C 7.600 142.374,7.235 142.802,6.789 142.919 C 6.342 143.036,6.004 143.282,6.036 143.466 C 6.402 145.549,5.938 147.909,5.200 147.716 C 4.735 147.594,4.400 147.704,4.400 147.977 C 4.400 148.242,4.618 148.320,4.900 148.155 C 5.175 147.994,5.070 148.239,4.667 148.699 C 4.085 149.364,3.961 150.054,4.067 152.060 C 4.188 154.361,4.129 154.586,3.400 154.593 C 2.654 154.599,2.600 154.869,2.600 158.553 C 2.600 162.151,2.528 162.534,1.794 162.806 C 1.055 163.080,0.980 163.502,0.897 167.827 C 0.834 171.100,0.652 172.647,0.303 172.868 C -0.077 173.110,-0.054 173.191,0.400 173.200 C 0.892 173.210,0.901 173.275,0.455 173.558 C -0.006 173.849,-0.006 173.937,0.455 174.120 C 0.842 174.274,0.855 174.346,0.500 174.368 C 0.106 174.393,0.000 179.684,0.000 199.400 C 0.000 219.130,0.105 224.401,0.500 224.406 C 0.866 224.411,0.854 224.505,0.455 224.758 C 0.034 225.024,0.024 225.141,0.411 225.270 C 0.782 225.394,0.910 226.921,0.903 231.149 C 0.894 236.710,0.918 236.871,1.806 237.276 C 2.671 237.669,2.715 237.893,2.659 241.546 C 2.604 245.150,2.652 245.401,3.400 245.409 C 4.117 245.417,4.187 245.646,4.076 247.609 C 3.907 250.607,4.294 252.526,5.012 252.251 C 5.849 251.930,5.992 252.417,6.042 255.759 C 6.087 258.784,6.193 258.993,7.609 258.878 C 7.724 258.868,7.798 259.568,7.773 260.433 C 7.739 261.607,7.875 261.980,8.310 261.903 C 8.631 261.846,9.046 262.205,9.234 262.700 C 9.655 263.814,8.661 263.979,8.032 262.900 C 7.668 262.275,7.623 262.296,7.612 263.100 C 7.604 263.737,7.833 264.000,8.400 264.000 C 9.020 264.000,9.200 264.267,9.200 265.187 C 9.200 266.050,9.356 266.315,9.769 266.156 C 10.534 265.863,11.347 267.408,10.874 268.254 C 10.559 268.816,10.431 268.779,9.857 267.960 C 9.230 267.065,9.200 267.060,9.200 267.847 C 9.200 268.343,9.607 268.857,10.223 269.137 C 10.785 269.394,11.129 269.791,10.988 270.019 C 10.847 270.248,10.949 270.697,11.215 271.018 C 11.555 271.428,11.565 271.600,11.249 271.600 C 11.002 271.600,10.800 271.774,10.800 271.987 C 10.800 272.201,11.077 272.268,11.416 272.138 C 11.755 272.008,11.987 272.059,11.931 272.251 C 11.876 272.443,12.064 273.022,12.349 273.537 C 12.637 274.057,12.756 274.921,12.617 275.476 C 12.302 276.730,13.051 277.701,14.082 277.374 C 14.756 277.160,14.791 277.225,14.367 277.905 C 13.703 278.967,14.207 280.866,15.111 280.715 C 15.617 280.631,15.830 280.920,15.914 281.800 C 16.062 283.358,16.835 284.873,17.375 284.664 C 17.652 284.557,17.753 285.236,17.665 286.612 C 17.547 288.465,17.633 288.757,18.365 288.989 C 19.000 289.190,19.200 289.586,19.200 290.640 C 19.200 291.597,19.416 292.102,19.900 292.275 C 21.223 292.746,21.699 293.290,21.119 293.666 C 20.775 293.889,20.931 293.968,21.584 293.901 C 22.276 293.830,22.614 294.024,22.724 294.557 C 22.848 295.157,22.706 295.269,22.040 295.095 C 21.577 294.974,21.300 295.038,21.423 295.237 C 21.546 295.437,21.918 295.600,22.249 295.600 C 22.643 295.600,22.807 295.910,22.725 296.500 C 22.632 297.173,22.802 297.402,23.400 297.409 C 23.958 297.416,24.161 297.645,24.070 298.163 C 23.835 299.509,24.377 300.837,25.111 300.715 C 25.602 300.633,25.837 300.918,25.927 301.707 C 25.997 302.316,26.222 302.710,26.427 302.583 C 26.632 302.456,26.803 302.768,26.806 303.276 C 26.811 303.947,26.906 304.051,27.156 303.657 C 27.624 302.918,27.974 303.596,27.825 304.954 C 27.744 305.689,28.017 306.409,28.626 307.066 C 29.165 307.647,29.450 308.325,29.310 308.691 C 29.119 309.187,29.285 309.277,30.106 309.120 C 31.024 308.945,31.131 309.041,31.040 309.961 C 30.920 311.179,31.438 312.400,32.076 312.400 C 32.322 312.400,32.198 312.040,31.800 311.600 C 31.098 310.824,31.101 310.800,31.904 310.800 C 32.633 310.800,32.710 310.990,32.548 312.400 C 32.386 313.805,32.463 314.000,33.182 314.000 C 33.713 314.000,34.000 314.261,34.000 314.745 C 34.000 315.469,35.801 317.600,36.412 317.600 C 36.578 317.600,36.826 317.890,36.962 318.245 C 37.139 318.706,37.037 318.823,36.605 318.657 C 36.272 318.529,36.000 318.599,36.000 318.813 C 36.000 319.026,36.360 319.200,36.800 319.200 C 37.240 319.200,37.603 319.425,37.606 319.700 C 37.610 320.033,37.742 320.000,38.000 319.600 C 38.213 319.270,38.391 319.189,38.394 319.420 C 38.397 319.651,38.175 320.080,37.900 320.374 C 37.490 320.812,37.562 320.870,38.300 320.692 C 38.952 320.535,39.208 320.657,39.231 321.137 C 39.297 322.584,39.584 323.399,40.178 323.833 C 40.520 324.083,40.800 324.583,40.800 324.944 C 40.800 325.305,40.963 325.600,41.163 325.600 C 41.362 325.600,41.431 325.240,41.316 324.800 C 41.147 324.154,41.304 324.000,42.127 324.000 C 43.026 324.000,43.121 324.131,42.930 325.100 C 42.540 327.076,42.590 327.367,43.347 327.523 C 43.820 327.620,43.994 327.513,43.820 327.232 C 43.668 326.987,43.349 326.908,43.111 327.055 C 42.841 327.222,42.792 327.136,42.983 326.827 C 43.410 326.136,44.173 326.948,44.188 328.108 C 44.196 328.724,44.479 329.040,45.100 329.128 C 45.678 329.210,46.000 329.532,46.000 330.028 C 46.000 330.453,46.360 331.160,46.800 331.600 C 47.240 332.040,47.600 332.760,47.600 333.200 C 47.600 333.778,47.867 334.000,48.563 334.000 C 49.312 334.000,49.481 334.169,49.326 334.761 C 49.191 335.278,49.382 335.604,49.920 335.775 C 50.357 335.913,50.812 336.403,50.932 336.863 C 51.112 337.549,51.353 337.652,52.275 337.437 C 53.029 337.262,53.216 337.298,52.842 337.547 C 52.166 337.998,52.543 339.200,53.360 339.200 C 53.683 339.200,54.057 339.551,54.194 339.980 C 54.349 340.470,54.666 340.673,55.047 340.527 C 55.818 340.231,57.987 342.751,57.688 343.594 C 57.569 343.927,57.615 344.071,57.789 343.914 C 58.333 343.422,59.592 344.356,59.324 345.053 C 59.119 345.589,59.212 345.622,59.897 345.255 C 60.524 344.920,60.824 344.947,61.175 345.370 C 61.522 345.788,61.515 345.962,61.145 346.085 C 60.462 346.313,61.028 347.600,61.811 347.600 C 62.161 347.600,62.334 347.417,62.196 347.193 C 62.058 346.970,61.764 346.899,61.543 347.035 C 61.322 347.172,61.370 346.917,61.651 346.468 C 61.931 346.019,62.340 345.763,62.560 345.899 C 62.806 346.051,62.769 346.210,62.464 346.312 C 61.743 346.552,62.688 347.600,63.625 347.600 C 64.025 347.600,64.483 347.811,64.642 348.068 C 64.835 348.381,64.715 348.453,64.278 348.285 C 63.919 348.148,63.499 348.240,63.344 348.491 C 63.158 348.792,62.951 348.684,62.734 348.173 C 62.418 347.427,62.411 347.428,62.516 348.200 C 62.589 348.739,62.915 348.990,63.512 348.968 C 64.184 348.944,64.400 349.163,64.400 349.868 C 64.400 350.533,64.629 350.800,65.200 350.800 C 65.640 350.800,66.000 351.051,66.000 351.357 C 66.000 352.002,66.852 352.400,68.233 352.400 C 68.833 352.400,69.200 352.632,69.200 353.010 C 69.200 353.345,69.658 353.794,70.218 354.007 C 70.850 354.247,71.192 354.651,71.118 355.070 C 71.049 355.469,71.329 355.840,71.800 355.973 C 72.240 356.098,72.600 356.470,72.600 356.800 C 72.600 357.165,72.953 357.388,73.500 357.368 C 74.185 357.344,74.400 357.559,74.400 358.268 C 74.400 358.914,74.631 359.200,75.153 359.200 C 75.570 359.200,76.000 359.557,76.116 360.000 C 76.276 360.613,76.662 360.800,77.763 360.800 C 78.933 360.800,79.200 360.948,79.200 361.600 C 79.200 362.133,79.467 362.400,80.000 362.400 C 80.533 362.400,80.800 362.667,80.800 363.200 C 80.800 363.776,81.067 364.000,81.753 364.000 C 82.359 364.000,82.780 364.282,82.909 364.774 C 83.042 365.282,83.605 365.640,84.556 365.818 C 85.859 366.063,86.191 366.392,86.047 367.300 C 86.021 367.465,86.360 367.600,86.800 367.600 C 87.244 367.600,87.600 367.867,87.600 368.200 C 87.600 368.829,87.843 368.915,89.800 368.972 C 90.807 369.002,90.984 369.155,90.900 369.931 C 90.818 370.684,90.944 370.808,91.587 370.604 C 92.201 370.409,92.431 370.586,92.639 371.414 C 92.879 372.369,93.059 372.459,94.453 372.326 C 95.964 372.182,96.272 372.465,96.025 373.768 C 95.986 373.970,96.244 373.896,96.596 373.603 C 97.110 373.177,97.134 372.998,96.719 372.705 C 96.319 372.423,96.338 372.379,96.800 372.513 C 97.130 372.608,97.381 372.945,97.358 373.262 C 97.335 373.579,97.692 373.867,98.152 373.901 C 98.612 373.936,99.051 374.154,99.128 374.385 C 99.205 374.616,99.478 374.679,99.734 374.526 C 100.047 374.338,100.037 374.448,99.703 374.860 C 99.033 375.689,99.447 376.000,101.222 376.000 C 102.395 376.000,102.699 376.149,102.656 376.700 C 102.623 377.115,102.880 377.402,103.286 377.405 C 103.664 377.407,104.240 377.767,104.566 378.205 C 105.147 378.983,105.155 378.980,104.933 378.100 C 104.453 376.194,106.695 377.723,107.615 379.929 C 107.875 380.552,108.297 380.833,108.901 380.784 C 110.425 380.661,110.699 380.772,110.916 381.600 C 111.031 382.040,111.446 382.400,111.839 382.400 C 112.508 382.400,112.510 382.368,111.870 381.900 C 111.253 381.449,111.282 381.395,112.164 381.344 C 112.847 381.305,113.077 381.456,112.928 381.844 C 112.796 382.188,112.981 382.400,113.413 382.400 C 113.797 382.400,114.312 382.672,114.556 383.005 C 115.037 383.659,116.976 384.208,116.587 383.579 C 116.458 383.371,116.543 383.200,116.776 383.200 C 117.009 383.200,117.200 383.395,117.200 383.633 C 117.200 383.872,117.425 383.986,117.700 383.887 C 118.572 383.575,119.594 384.351,119.304 385.105 C 119.055 385.756,119.100 385.758,120.053 385.133 C 120.854 384.608,121.067 384.584,121.067 385.017 C 121.067 385.318,120.929 385.480,120.761 385.376 C 120.593 385.272,120.342 385.370,120.204 385.593 C 120.058 385.829,120.393 386.000,121.000 386.000 C 121.588 386.000,121.940 385.827,121.803 385.605 C 121.663 385.378,121.823 385.311,122.177 385.446 C 122.517 385.577,122.705 385.830,122.594 386.010 C 122.483 386.189,122.677 386.620,123.025 386.968 C 123.791 387.734,125.394 387.844,124.947 387.100 C 124.714 386.712,124.776 386.705,125.223 387.066 C 125.821 387.549,125.992 387.600,127.000 387.600 C 127.330 387.600,127.974 387.974,128.431 388.431 C 128.888 388.888,129.518 389.164,129.830 389.044 C 130.160 388.917,130.670 389.241,131.045 389.813 C 131.401 390.356,131.963 390.800,132.295 390.800 C 132.793 390.800,132.809 390.693,132.386 390.183 C 131.449 389.054,132.543 388.740,133.695 389.808 C 134.416 390.476,135.228 390.800,136.183 390.800 C 137.472 390.800,137.806 391.096,137.647 392.100 C 137.621 392.265,137.735 392.379,137.900 392.353 C 139.998 392.021,142.400 392.474,142.400 393.200 C 142.400 393.660,142.667 394.000,143.027 394.000 C 143.472 394.000,143.580 393.768,143.400 393.200 C 143.217 392.623,143.328 392.400,143.800 392.400 C 144.272 392.400,144.383 392.623,144.200 393.200 C 143.969 393.928,144.128 394.000,145.960 394.000 C 147.643 394.000,147.934 394.105,147.729 394.640 C 147.338 395.660,148.330 395.956,152.155 395.962 C 155.570 395.968,156.726 396.349,156.150 397.281 C 155.861 397.749,157.122 397.670,158.075 397.160 C 158.642 396.857,158.814 396.853,158.632 397.149 C 158.449 397.444,159.561 397.549,162.217 397.487 C 165.051 397.421,166.185 397.540,166.515 397.938 C 166.877 398.374,166.742 398.452,165.817 398.339 C 165.109 398.253,164.600 398.406,164.489 398.739 C 164.294 399.318,166.619 399.206,167.620 398.588 C 167.925 398.399,168.023 398.439,167.869 398.689 C 167.703 398.957,168.698 399.122,170.707 399.160 C 172.408 399.193,173.860 399.395,173.933 399.610 C 174.164 400.284,175.199 400.034,175.213 399.300 C 175.225 398.633,175.251 398.633,175.757 399.300 C 176.447 400.209,223.745 400.404,224.167 399.500 C 224.353 399.100,224.447 399.100,224.633 399.500 C 224.910 400.093,225.876 400.167,226.067 399.610 C 226.140 399.395,227.581 399.193,229.269 399.161 C 231.924 399.110,232.304 399.014,232.091 398.451 C 231.879 397.890,231.943 397.897,232.551 398.500 C 233.541 399.481,235.476 399.421,235.800 398.400 C 236.038 397.650,238.689 397.243,241.140 397.579 C 241.458 397.623,241.562 397.462,241.392 397.187 C 241.175 396.836,241.308 396.830,241.925 397.160 C 243.079 397.778,244.020 397.716,243.760 397.040 C 243.410 396.127,244.349 395.867,247.764 395.931 C 251.700 396.005,252.542 395.787,252.274 394.761 C 252.092 394.067,252.318 394.000,254.837 394.000 C 257.333 394.000,257.600 393.923,257.600 393.200 C 257.600 392.489,257.867 392.400,260.000 392.400 C 262.133 392.400,262.400 392.311,262.400 391.600 C 262.400 390.809,264.190 390.520,267.473 390.781 C 267.994 390.822,268.523 390.518,268.787 390.025 C 269.119 389.405,269.621 389.200,270.814 389.200 C 272.133 389.200,272.400 389.065,272.400 388.400 C 272.400 387.616,272.928 387.416,274.543 387.586 C 275.838 387.723,277.139 387.223,277.368 386.499 C 277.528 385.997,278.014 385.800,279.095 385.800 C 280.398 385.800,280.596 385.679,280.568 384.900 C 280.535 383.962,280.802 383.865,283.072 383.988 C 283.894 384.032,284.636 383.764,285.172 383.228 C 285.627 382.773,286.234 382.400,286.520 382.400 C 286.806 382.400,287.282 382.175,287.579 381.900 C 288.010 381.500,288.061 381.500,287.835 381.900 C 287.659 382.212,287.801 382.400,288.214 382.400 C 288.577 382.400,288.969 382.040,289.084 381.600 C 289.243 380.994,289.630 380.800,290.684 380.800 C 291.738 380.800,292.125 380.606,292.284 380.000 C 292.399 379.560,292.663 379.200,292.870 379.200 C 293.078 379.200,293.112 378.975,292.947 378.700 C 292.763 378.395,292.925 378.426,293.362 378.781 C 294.016 379.312,294.066 379.279,293.939 378.391 C 293.839 377.692,294.012 377.378,294.557 377.270 C 295.176 377.147,295.271 377.292,295.077 378.060 C 294.852 378.951,294.870 378.960,295.407 378.241 C 295.719 377.824,295.861 377.284,295.723 377.041 C 295.585 376.798,295.621 376.735,295.803 376.901 C 295.986 377.066,296.453 376.914,296.843 376.561 C 297.232 376.209,298.222 375.894,299.042 375.861 C 300.612 375.797,301.355 374.992,300.122 374.691 C 299.699 374.588,300.107 374.387,301.106 374.205 C 302.599 373.935,302.749 373.815,302.313 373.248 C 301.990 372.829,302.131 372.870,302.709 373.364 C 303.675 374.188,304.404 373.969,303.663 373.076 C 303.181 372.495,303.145 372.509,305.667 372.303 C 306.365 372.246,307.022 371.931,307.132 371.600 C 307.303 371.082,307.238 371.076,306.655 371.557 C 305.844 372.227,305.297 371.848,305.946 371.065 C 306.232 370.721,306.935 370.569,307.803 370.665 C 309.062 370.804,309.200 370.722,309.200 369.836 C 309.200 368.996,309.351 368.880,310.241 369.042 C 311.296 369.233,312.400 368.643,312.400 367.889 C 312.400 367.662,312.040 367.802,311.600 368.200 C 310.881 368.851,310.800 368.857,310.800 368.262 C 310.800 367.601,311.359 367.441,313.145 367.590 C 313.686 367.635,313.985 367.499,313.844 367.271 C 313.471 366.668,313.998 365.624,314.564 365.842 C 315.353 366.144,317.200 365.281,317.200 364.610 C 317.200 364.226,317.571 364.000,318.200 364.000 C 318.933 364.000,319.200 363.787,319.200 363.200 C 319.200 362.659,319.467 362.400,320.024 362.400 C 320.477 362.400,320.758 362.256,320.650 362.081 C 320.236 361.411,321.177 360.678,322.406 360.713 C 323.356 360.740,323.741 360.548,323.891 359.975 C 324.002 359.549,324.420 359.200,324.820 359.200 C 325.219 359.200,325.654 358.859,325.786 358.443 C 325.918 358.027,326.404 357.588,326.866 357.467 C 327.448 357.315,327.646 357.018,327.510 356.498 C 327.363 355.936,327.525 355.755,328.157 355.774 C 328.742 355.792,329.000 355.555,329.000 355.000 C 329.000 354.475,329.309 354.156,329.900 354.072 C 330.478 353.990,330.800 353.668,330.800 353.172 C 330.800 352.721,331.091 352.381,331.500 352.354 C 331.885 352.328,332.380 352.266,332.600 352.215 C 332.820 352.164,333.225 352.094,333.500 352.061 C 333.775 352.027,334.000 351.730,334.000 351.400 C 334.000 351.070,334.349 350.800,334.775 350.800 C 335.420 350.800,335.546 350.523,335.527 349.153 C 335.504 347.473,336.298 346.400,336.883 347.321 C 337.376 348.096,337.254 348.404,336.300 348.788 L 335.400 349.149 336.273 349.175 C 336.793 349.190,337.243 348.894,337.386 348.443 C 337.518 348.027,337.981 347.594,338.413 347.481 C 338.846 347.367,339.200 347.009,339.200 346.684 C 339.200 346.359,339.560 345.999,340.000 345.884 C 340.440 345.769,340.800 345.467,340.800 345.214 C 340.800 344.960,340.607 344.872,340.370 345.018 C 340.120 345.173,340.146 344.955,340.433 344.496 C 340.735 344.012,341.210 343.782,341.663 343.900 C 342.070 344.007,342.400 343.883,342.400 343.623 C 342.400 343.364,342.207 343.272,341.970 343.418 C 341.720 343.573,341.746 343.355,342.033 342.896 C 342.363 342.367,342.801 342.179,343.363 342.323 C 344.102 342.514,344.136 342.461,343.655 341.874 C 343.355 341.508,342.922 341.325,342.693 341.466 C 342.457 341.612,342.395 341.531,342.551 341.279 C 342.702 341.035,343.090 340.936,343.413 341.060 C 343.736 341.184,344.000 341.117,344.000 340.911 C 344.000 340.705,344.405 340.551,344.900 340.568 C 345.566 340.592,345.793 340.381,345.774 339.757 C 345.755 339.125,345.936 338.963,346.498 339.110 C 347.013 339.244,347.314 339.050,347.461 338.490 C 347.578 338.041,348.030 337.581,348.466 337.467 C 349.098 337.302,349.218 337.012,349.063 336.028 C 348.952 335.322,349.028 334.894,349.241 335.025 C 349.446 335.152,349.491 335.453,349.341 335.696 C 349.163 335.983,349.311 336.043,349.767 335.868 C 350.151 335.721,350.541 335.600,350.633 335.600 C 350.725 335.600,350.800 335.240,350.800 334.800 C 350.800 334.267,351.067 334.000,351.600 334.000 C 352.133 334.000,352.400 333.733,352.400 333.200 C 352.400 332.760,352.751 332.049,353.181 331.619 C 353.615 331.185,353.891 330.475,353.804 330.019 C 353.678 329.367,353.853 329.200,354.660 329.200 C 355.322 329.200,355.744 328.935,355.874 328.437 C 355.984 328.017,356.390 327.591,356.776 327.490 C 357.163 327.389,357.579 326.922,357.702 326.453 C 357.855 325.868,357.779 325.690,357.463 325.888 C 356.711 326.357,355.529 326.438,355.799 326.001 C 355.936 325.781,356.307 325.600,356.624 325.600 C 356.941 325.600,357.200 325.240,357.200 324.800 C 357.200 324.252,357.467 324.000,358.047 324.000 C 358.696 324.000,358.845 324.186,358.684 324.800 C 358.569 325.240,358.638 325.600,358.837 325.600 C 359.037 325.600,359.200 325.330,359.200 325.000 C 359.200 324.670,359.560 324.040,360.000 323.600 C 360.440 323.160,360.800 322.350,360.800 321.800 C 360.800 321.067,361.013 320.800,361.600 320.800 C 362.133 320.800,362.400 320.533,362.400 320.000 C 362.400 319.467,362.667 319.200,363.200 319.200 C 363.640 319.200,364.000 319.026,364.000 318.813 C 364.000 318.599,363.685 318.524,363.300 318.645 C 362.659 318.847,362.661 318.815,363.327 318.269 C 363.726 317.941,364.041 317.566,364.027 317.436 C 363.910 316.403,364.122 316.038,364.900 315.928 C 365.680 315.817,365.794 315.574,365.757 314.100 C 365.721 312.666,365.837 312.400,366.495 312.400 C 366.938 312.400,367.365 312.055,367.484 311.600 C 367.599 311.160,367.970 310.800,368.309 310.800 C 368.826 310.800,368.809 310.927,368.200 311.600 C 367.802 312.040,367.678 312.400,367.924 312.400 C 368.573 312.400,369.201 311.041,369.010 310.051 C 368.877 309.362,369.041 309.200,369.870 309.200 C 370.684 309.200,370.852 309.042,370.691 308.428 C 370.564 307.941,370.843 307.324,371.445 306.758 C 372.000 306.237,372.400 305.403,372.400 304.768 C 372.400 303.857,372.539 303.711,373.235 303.893 C 373.879 304.062,374.051 303.939,373.989 303.356 C 373.790 301.500,374.015 300.854,374.900 300.728 C 375.620 300.626,375.840 300.280,376.000 299.000 C 376.133 297.933,376.400 297.400,376.800 297.400 C 377.130 297.400,377.401 297.070,377.403 296.666 C 377.404 296.262,377.725 295.698,378.116 295.412 C 378.507 295.126,378.895 294.347,378.980 293.680 C 379.064 293.013,379.494 292.106,379.936 291.664 C 380.377 291.223,380.690 290.535,380.632 290.136 C 380.572 289.726,380.889 289.230,381.363 288.992 C 382.035 288.656,382.200 288.202,382.200 286.687 C 382.200 285.649,382.348 284.800,382.529 284.800 C 383.215 284.800,383.832 283.749,383.927 282.421 C 384.039 280.846,384.193 280.612,385.128 280.605 C 385.587 280.602,385.828 280.220,385.887 279.400 C 385.935 278.740,385.875 278.426,385.753 278.702 C 385.631 278.979,385.353 279.095,385.135 278.960 C 384.917 278.825,385.372 278.285,386.145 277.760 C 387.369 276.928,387.547 276.599,387.528 275.200 C 387.516 274.318,387.705 273.355,387.949 273.061 C 388.193 272.767,388.260 272.379,388.097 272.199 C 387.933 272.020,388.110 271.984,388.490 272.120 C 389.055 272.322,389.172 272.136,389.138 271.083 C 389.075 269.084,389.157 268.800,389.800 268.800 C 390.130 268.800,390.431 268.575,390.468 268.300 C 390.552 267.688,390.683 266.110,390.750 264.900 C 390.784 264.291,391.053 264.000,391.581 264.000 C 392.284 264.000,392.351 263.752,392.249 261.514 C 392.154 259.437,392.272 258.892,392.968 258.196 C 393.749 257.414,393.859 256.857,393.969 253.137 C 393.993 252.296,394.159 252.116,394.761 252.274 C 395.649 252.506,396.098 251.488,395.989 249.491 C 395.834 246.635,395.996 245.600,396.600 245.600 C 396.930 245.600,397.197 245.285,397.194 244.900 C 397.189 244.301,397.131 244.286,396.794 244.800 C 396.444 245.333,396.357 245.333,396.010 244.800 C 395.705 244.330,395.836 244.173,396.610 244.073 C 397.702 243.934,397.820 243.558,397.160 242.325 C 396.841 241.729,396.841 241.578,397.159 241.775 C 397.423 241.938,397.574 241.756,397.536 241.323 C 397.313 238.759,397.625 237.287,398.436 237.075 C 399.293 236.851,399.379 234.861,398.588 233.580 C 398.397 233.271,398.439 233.177,398.696 233.336 C 398.976 233.509,399.132 232.371,399.165 229.917 C 399.198 227.487,399.382 226.132,399.707 225.925 C 400.095 225.679,400.094 225.611,399.700 225.606 C 399.425 225.603,399.200 225.240,399.200 224.800 C 399.200 224.360,399.425 223.997,399.700 223.994 C 400.033 223.990,400.000 223.858,399.600 223.600 C 399.200 223.342,399.167 223.210,399.500 223.206 C 399.894 223.201,400.000 218.170,400.000 199.400 C 400.000 180.630,399.894 175.599,399.500 175.594 C 399.166 175.590,399.199 175.457,399.600 175.194 C 400.068 174.887,400.089 174.728,399.697 174.474 C 399.336 174.241,399.184 172.624,399.162 168.774 C 399.134 164.004,399.045 163.333,398.374 162.800 C 397.827 162.366,397.597 161.622,397.546 160.115 C 397.505 158.929,397.312 158.131,397.097 158.264 C 396.890 158.392,396.918 158.127,397.160 157.675 C 397.879 156.331,397.721 155.508,396.800 155.800 C 395.982 156.060,395.735 154.493,395.991 150.668 C 396.033 150.046,395.737 149.160,395.333 148.700 C 394.930 148.239,394.825 147.994,395.100 148.155 C 395.377 148.317,395.600 148.246,395.600 147.997 C 395.600 147.728,395.277 147.649,394.800 147.800 C 394.080 148.029,394.000 147.872,394.000 146.227 C 394.000 145.035,393.826 144.398,393.500 144.394 C 393.190 144.390,393.152 144.276,393.400 144.094 C 394.019 143.639,393.874 142.662,393.088 142.000 C 392.662 141.640,392.355 140.793,392.323 139.883 C 392.293 139.049,392.091 138.256,391.873 138.121 C 391.628 137.970,391.606 138.091,391.815 138.438 C 392.103 138.917,392.053 138.919,391.477 138.451 C 390.756 137.866,390.544 136.400,391.180 136.400 C 391.389 136.400,391.744 136.715,391.968 137.100 C 392.332 137.725,392.377 137.704,392.388 136.900 C 392.396 136.263,392.167 136.000,391.600 136.000 C 391.121 136.000,390.783 135.719,390.757 135.300 C 390.733 134.915,390.688 133.933,390.657 133.117 C 390.620 132.166,390.325 131.433,389.833 131.074 C 389.318 130.697,389.067 130.030,389.067 129.039 C 389.067 127.994,388.915 127.624,388.546 127.765 C 387.791 128.055,387.556 127.457,387.539 125.197 C 387.527 123.721,387.330 123.056,386.793 122.680 C 386.389 122.397,386.005 121.551,385.932 120.785 C 385.859 120.023,385.575 119.378,385.300 119.350 C 385.025 119.322,384.620 119.278,384.400 119.250 C 384.180 119.222,383.994 118.615,383.987 117.900 C 383.974 116.566,383.226 115.200,382.508 115.200 C 382.286 115.200,382.168 114.661,382.244 114.003 C 382.321 113.344,382.252 112.826,382.092 112.850 C 380.940 113.026,380.491 112.740,380.695 111.959 C 380.824 111.466,380.684 110.972,380.357 110.765 C 380.051 110.571,380.000 110.409,380.245 110.406 C 380.722 110.400,380.659 108.505,380.168 108.065 C 380.005 107.919,379.975 108.086,380.099 108.436 C 380.463 109.458,379.831 110.161,379.216 109.419 C 378.821 108.943,378.811 108.669,379.170 108.236 C 379.475 107.869,379.498 107.584,379.237 107.423 C 379.016 107.286,378.934 106.865,379.055 106.487 C 379.231 105.938,379.195 105.914,378.874 106.365 C 378.393 107.042,377.487 106.309,377.276 105.073 C 377.169 104.444,377.276 104.406,378.076 104.795 C 378.934 105.212,378.947 105.201,378.261 104.650 C 377.855 104.323,377.268 104.153,376.957 104.272 C 376.565 104.422,376.467 104.292,376.637 103.847 C 376.773 103.494,377.068 103.319,377.294 103.458 C 377.523 103.600,377.619 103.467,377.510 103.156 C 377.404 102.850,377.031 102.650,376.682 102.712 C 376.198 102.798,376.018 102.417,375.924 101.112 C 375.851 100.111,375.592 99.379,375.300 99.350 C 375.025 99.323,374.620 99.278,374.400 99.250 C 374.180 99.223,374.000 98.840,374.000 98.400 C 374.000 97.960,373.775 97.597,373.500 97.594 C 373.167 97.590,373.200 97.458,373.600 97.200 C 374.085 96.886,374.028 96.811,373.300 96.806 C 372.805 96.803,372.421 96.665,372.447 96.500 C 372.638 95.290,372.275 93.875,371.600 93.200 C 371.160 92.760,370.800 92.040,370.800 91.600 C 370.800 91.067,370.533 90.800,370.000 90.800 C 369.560 90.800,369.200 90.609,369.200 90.376 C 369.200 90.143,369.056 90.042,368.881 90.150 C 368.705 90.258,368.300 90.172,367.981 89.957 C 367.513 89.642,367.547 89.589,368.159 89.683 C 369.248 89.851,369.387 88.987,368.425 88.025 C 367.971 87.571,367.600 86.922,367.600 86.582 C 367.600 86.216,367.315 86.013,366.900 86.082 C 366.440 86.160,366.158 85.904,366.077 85.338 C 366.010 84.864,365.335 83.838,364.577 83.058 C 363.246 81.687,362.777 80.891,363.600 81.400 C 363.820 81.536,364.000 81.457,364.000 81.224 C 364.000 80.991,363.640 80.800,363.200 80.800 C 362.667 80.800,362.400 80.533,362.400 80.000 C 362.400 79.188,361.642 79.071,361.106 79.800 C 360.944 80.020,360.809 79.705,360.806 79.100 C 360.801 78.100,360.438 77.833,359.200 77.919 C 359.090 77.927,358.974 77.502,358.943 76.975 L 358.886 76.017 359.608 76.909 C 360.006 77.399,360.452 77.680,360.599 77.533 C 360.746 77.387,360.492 76.892,360.033 76.433 C 359.575 75.975,359.200 75.330,359.200 75.000 C 359.200 74.670,359.037 74.400,358.837 74.400 C 358.638 74.400,358.563 74.735,358.670 75.145 C 358.906 76.049,357.678 76.670,357.349 75.812 C 357.228 75.497,357.246 75.050,357.388 74.819 C 357.531 74.589,357.412 74.397,357.124 74.394 C 356.718 74.389,356.725 74.308,357.158 74.034 C 357.828 73.610,357.459 72.400,356.659 72.400 C 356.348 72.400,355.996 72.027,355.876 71.570 C 355.701 70.900,355.515 70.817,354.912 71.140 C 354.325 71.454,354.154 71.396,354.113 70.870 C 354.024 69.725,353.240 68.000,352.810 68.000 C 352.584 68.000,352.400 67.550,352.400 67.000 C 352.400 66.210,352.198 66.000,351.437 66.000 C 350.665 66.000,350.517 65.839,350.689 65.183 C 350.831 64.639,350.727 64.405,350.378 64.483 C 350.089 64.547,349.607 64.105,349.305 63.500 C 348.729 62.346,347.818 62.051,347.449 62.900 C 347.330 63.175,347.337 62.894,347.465 62.275 C 347.656 61.360,347.541 61.110,346.850 60.929 C 346.382 60.807,346.000 60.526,346.000 60.304 C 346.000 60.083,345.701 60.149,345.335 60.451 C 344.727 60.952,344.714 60.916,345.181 60.039 C 345.624 59.209,345.610 59.111,345.076 59.316 C 344.323 59.605,343.418 58.619,343.827 57.956 C 344.006 57.667,343.954 57.581,343.698 57.739 C 342.945 58.205,342.076 57.596,342.295 56.757 C 342.409 56.322,342.344 55.995,342.151 56.030 C 340.949 56.251,340.486 55.955,340.697 55.100 C 340.818 54.605,340.773 54.333,340.596 54.497 C 340.419 54.660,339.998 54.570,339.662 54.297 C 339.142 53.874,339.095 53.918,339.346 54.588 C 339.509 55.021,339.498 55.230,339.321 55.052 C 339.145 54.874,339.000 54.254,339.000 53.673 C 339.000 52.919,338.771 52.587,338.200 52.512 C 337.427 52.410,337.426 52.418,338.173 52.734 C 338.715 52.964,338.803 53.151,338.467 53.359 C 338.203 53.522,338.106 53.868,338.252 54.128 C 338.451 54.481,338.394 54.486,338.026 54.147 C 337.755 53.898,337.504 53.088,337.467 52.347 C 337.411 51.226,337.249 51.005,336.500 51.032 C 335.815 51.056,335.600 50.841,335.600 50.132 C 335.600 49.467,335.371 49.200,334.800 49.200 C 334.360 49.200,334.000 48.949,334.000 48.643 C 334.000 48.336,333.715 47.976,333.367 47.843 C 332.391 47.468,332.120 47.578,332.900 48.032 C 333.752 48.528,333.852 49.671,333.015 49.350 C 332.694 49.227,332.321 48.783,332.188 48.363 C 332.055 47.943,331.688 47.600,331.373 47.600 C 331.058 47.600,330.800 47.324,330.800 46.987 C 330.800 46.650,330.396 46.225,329.902 46.042 C 329.408 45.859,329.003 45.371,329.002 44.955 C 329.001 44.452,328.725 44.208,328.176 44.224 C 327.597 44.240,327.360 44.003,327.376 43.424 C 327.394 42.803,327.179 42.623,326.502 42.695 C 326.008 42.747,325.624 42.657,325.649 42.495 C 325.812 41.446,325.506 40.800,324.847 40.800 C 324.430 40.800,324.000 40.443,323.884 40.000 C 323.759 39.521,323.338 39.200,322.837 39.200 C 322.360 39.200,322.000 38.942,322.000 38.600 C 322.000 38.049,321.747 37.953,320.000 37.839 C 319.670 37.818,319.342 37.395,319.272 36.900 C 319.182 36.263,318.874 36.000,318.219 36.000 C 317.640 36.000,317.217 35.710,317.091 35.226 C 316.958 34.718,316.395 34.360,315.444 34.182 C 314.393 33.985,314.000 33.706,314.000 33.159 C 314.000 32.547,313.757 32.434,312.700 32.551 C 311.032 32.735,310.393 32.483,310.675 31.750 C 310.865 31.253,311.011 31.267,311.649 31.845 C 312.062 32.218,312.400 32.338,312.400 32.111 C 312.400 31.357,311.296 30.767,310.241 30.958 C 309.343 31.121,309.200 31.007,309.200 30.131 C 309.200 29.382,309.039 29.176,308.587 29.350 C 308.184 29.504,307.851 29.260,307.612 28.632 C 307.338 27.910,306.930 27.669,305.925 27.635 C 303.302 27.546,302.664 27.390,302.503 26.800 C 302.376 26.337,302.422 26.318,302.705 26.719 C 303.003 27.143,303.152 27.140,303.515 26.702 C 303.869 26.276,303.698 26.148,302.680 26.074 C 300.624 25.924,299.788 25.581,300.447 25.156 C 301.388 24.550,299.384 23.707,297.547 23.937 C 297.408 23.954,297.318 23.661,297.347 23.284 C 297.384 22.801,297.136 22.628,296.500 22.695 C 295.942 22.754,295.600 22.573,295.600 22.219 C 295.600 21.904,295.437 21.546,295.237 21.423 C 295.038 21.300,294.974 21.577,295.095 22.040 C 295.268 22.705,295.156 22.849,294.557 22.730 C 294.032 22.626,293.839 22.304,293.927 21.681 C 293.996 21.187,293.906 20.808,293.727 20.838 C 292.896 20.981,292.477 20.738,292.284 20.000 C 292.124 19.387,291.738 19.200,290.637 19.200 C 289.613 19.200,289.200 19.024,289.200 18.587 C 289.200 17.752,288.003 17.352,287.566 18.042 C 287.313 18.441,287.211 18.457,287.206 18.100 C 287.203 17.825,286.930 17.600,286.600 17.600 C 286.270 17.600,285.613 17.213,285.139 16.739 C 284.297 15.897,284.265 15.895,283.685 16.639 C 283.177 17.292,283.127 17.301,283.334 16.700 C 283.616 15.882,283.188 15.788,282.421 16.500 C 281.986 16.904,281.944 16.893,282.201 16.442 C 282.448 16.008,282.284 15.929,281.466 16.085 C 280.510 16.268,280.436 16.194,280.665 15.284 C 280.832 14.617,280.772 14.370,280.486 14.547 C 280.249 14.693,279.932 14.613,279.780 14.368 C 279.606 14.087,278.887 14.016,277.822 14.176 C 275.900 14.464,274.800 14.166,274.800 13.357 C 274.800 13.051,274.633 12.800,274.428 12.800 C 274.223 12.800,273.998 12.395,273.928 11.900 C 273.785 10.895,271.179 10.534,270.000 11.355 C 269.670 11.585,269.516 11.633,269.658 11.462 C 269.982 11.071,268.284 9.200,267.605 9.200 C 267.205 9.200,267.207 9.326,267.614 9.817 C 268.016 10.301,268.022 10.538,267.639 10.917 C 267.258 11.295,267.205 11.262,267.395 10.764 C 267.716 9.920,266.616 9.050,265.572 9.323 C 265.038 9.463,264.435 9.235,263.884 8.684 C 263.065 7.865,262.481 7.738,259.100 7.642 C 257.881 7.608,257.600 7.450,257.600 6.800 C 257.600 6.360,257.399 6.000,257.153 6.000 C 256.904 6.000,256.799 6.353,256.916 6.800 C 257.071 7.393,256.928 7.600,256.363 7.600 C 255.679 7.600,255.414 7.175,255.553 6.300 C 255.579 6.135,254.800 6.000,253.823 6.000 C 252.236 6.000,252.063 5.911,252.207 5.164 C 252.340 4.471,252.268 4.411,251.784 4.813 C 251.310 5.207,251.200 5.166,251.200 4.593 C 251.200 3.977,250.908 3.915,248.871 4.100 C 246.944 4.275,246.375 4.175,245.571 3.521 C 245.037 3.086,244.853 2.864,245.162 3.027 C 245.487 3.199,245.623 3.161,245.486 2.939 C 245.354 2.726,243.343 2.578,240.983 2.608 C 236.907 2.658,235.600 2.334,235.600 1.271 C 235.600 1.122,233.487 0.959,230.903 0.910 C 228.132 0.857,226.151 0.652,226.070 0.410 C 225.861 -0.216,225.149 -0.080,224.557 0.700 C 224.051 1.367,224.025 1.367,224.013 0.700 C 224.001 0.041,222.586 0.000,200.000 0.000 C 177.414 0.000,175.999 0.041,175.987 0.700 C 175.975 1.367,175.949 1.367,175.443 0.700 C 174.851 -0.080,174.139 -0.216,173.930 0.410 M234.959 1.667 C 234.845 1.850,234.943 2.000,235.176 2.000 C 236.005 2.000,235.585 2.631,234.712 2.697 C 233.754 2.769,232.992 1.976,233.637 1.577 C 234.222 1.216,235.197 1.282,234.959 1.667 M275.800 12.878 C 276.240 13.127,276.725 13.522,276.878 13.754 C 277.031 13.987,277.265 14.068,277.397 13.936 C 277.763 13.571,276.435 12.398,275.671 12.412 C 275.115 12.422,275.137 12.502,275.800 12.878 M291.600 20.200 C 292.008 20.691,291.980 20.800,291.449 20.800 C 291.092 20.800,290.800 20.530,290.800 20.200 C 290.800 19.870,290.868 19.600,290.951 19.600 C 291.034 19.600,291.326 19.870,291.600 20.200 M84.400 35.400 C 84.400 35.730,84.108 36.000,83.751 36.000 C 83.220 36.000,83.192 35.891,83.600 35.400 C 83.874 35.070,84.166 34.800,84.249 34.800 C 84.332 34.800,84.400 35.070,84.400 35.400 M77.745 40.200 C 77.901 40.608,77.723 40.800,77.187 40.800 C 76.401 40.800,76.162 40.371,76.667 39.867 C 77.099 39.435,77.498 39.558,77.745 40.200 M323.508 40.325 C 323.595 40.586,323.382 40.800,323.033 40.800 C 322.685 40.800,322.400 40.515,322.400 40.167 C 322.400 39.460,323.261 39.583,323.508 40.325 M67.730 48.561 C 67.857 48.894,67.632 49.203,67.172 49.323 C 66.716 49.442,66.400 49.322,66.400 49.029 C 66.400 47.990,67.378 47.645,67.730 48.561 M42.538 73.017 C 42.166 73.988,42.602 74.082,43.398 73.202 C 44.060 72.470,44.065 72.400,43.449 72.400 C 43.078 72.400,42.668 72.678,42.538 73.017 M36.000 81.133 C 36.000 81.697,36.451 81.955,37.039 81.730 C 37.874 81.409,37.717 80.800,36.800 80.800 C 36.360 80.800,36.000 80.950,36.000 81.133 M32.700 88.557 C 32.700 89.226,32.504 89.476,32.050 89.388 C 31.693 89.318,31.327 89.247,31.238 89.231 C 31.082 89.201,32.432 87.600,32.612 87.600 C 32.660 87.600,32.700 88.031,32.700 88.557 M368.231 89.135 C 367.377 89.302,367.030 88.999,367.396 88.407 C 367.593 88.087,367.848 88.108,368.298 88.481 C 368.863 88.949,368.856 89.013,368.231 89.135 M112.374 103.586 C 114.113 104.517,112.293 106.690,110.212 106.167 C 109.173 105.906,108.328 104.232,108.931 103.629 C 109.465 103.095,111.412 103.071,112.374 103.586 M89.771 104.229 C 90.809 105.266,90.147 106.308,87.912 107.158 C 86.245 107.791,84.799 105.361,86.080 104.080 C 86.765 103.395,89.029 103.486,89.771 104.229 M101.800 104.000 C 102.240 104.189,102.443 104.356,102.251 104.372 C 102.059 104.387,102.131 104.675,102.410 105.012 C 102.831 105.519,102.762 105.789,102.008 106.591 C 100.643 108.045,98.825 108.318,97.923 107.204 C 96.134 104.996,98.865 102.739,101.800 104.000 M197.108 104.028 C 199.608 104.899,199.004 106.800,196.227 106.800 C 192.778 106.800,192.311 104.289,195.640 103.646 C 195.772 103.621,196.433 103.793,197.108 104.028 M20.800 108.600 C 20.800 108.930,20.536 109.200,20.213 109.200 C 19.855 109.200,19.715 108.965,19.855 108.600 C 19.982 108.270,20.246 108.000,20.443 108.000 C 20.639 108.000,20.800 108.270,20.800 108.600 M178.849 109.054 C 181.513 110.539,187.132 115.601,189.262 118.434 C 189.846 119.211,191.646 120.914,193.262 122.218 C 194.878 123.522,197.586 125.977,199.280 127.672 L 202.361 130.755 249.080 130.877 L 295.800 131.000 298.091 132.107 C 304.687 135.296,307.806 138.464,311.676 145.907 L 313.608 149.623 313.612 209.661 L 313.615 269.699 312.735 272.349 C 312.251 273.807,311.528 275.429,311.128 275.954 C 310.728 276.479,310.400 277.126,310.400 277.392 C 310.400 277.658,310.040 278.202,309.600 278.600 C 309.160 278.998,308.800 279.496,308.800 279.706 C 308.800 282.277,300.014 288.414,295.200 289.205 C 293.550 289.476,291.390 289.845,290.400 290.025 C 285.868 290.849,112.738 290.451,109.573 289.609 C 107.938 289.175,105.970 288.813,105.200 288.806 C 101.240 288.769,94.158 283.093,91.717 278.000 C 91.137 276.790,90.452 275.530,90.195 275.200 C 89.938 274.870,89.334 273.520,88.854 272.200 L 87.979 269.800 88.090 198.800 L 88.200 127.800 89.075 125.600 C 91.042 120.651,91.845 119.465,96.600 114.488 C 100.224 110.694,104.004 109.005,110.200 108.407 C 118.217 107.634,177.301 108.190,178.849 109.054 M190.090 109.583 C 190.030 110.123,189.832 110.663,189.650 110.783 C 189.468 110.902,189.106 111.405,188.846 111.900 C 188.138 113.245,187.154 113.002,185.019 110.956 C 182.661 108.697,182.966 108.353,187.200 108.497 C 190.125 108.597,190.197 108.624,190.090 109.583 M19.200 111.987 C 19.200 112.529,19.009 112.702,18.590 112.541 C 18.119 112.360,18.085 112.180,18.439 111.753 C 19.055 111.010,19.200 111.055,19.200 111.987 M92.800 113.687 C 92.800 114.359,92.632 114.743,92.400 114.600 C 92.180 114.464,92.000 114.500,92.000 114.680 C 92.000 116.179,89.343 116.029,88.761 114.497 C 88.220 113.074,88.905 112.468,91.019 112.500 C 92.712 112.525,92.800 112.584,92.800 113.687 M198.235 117.232 C 198.694 117.225,199.452 117.575,199.918 118.010 C 200.385 118.444,201.297 118.800,201.946 118.800 C 203.014 118.800,203.259 119.076,204.554 121.731 C 205.963 124.622,206.758 127.595,206.125 127.605 C 205.946 127.608,205.420 127.713,204.955 127.838 C 204.134 128.058,203.580 127.271,203.439 125.683 C 203.414 125.399,203.161 125.023,202.876 124.847 C 202.592 124.672,202.331 124.139,202.295 123.664 C 202.256 123.142,201.960 122.800,201.548 122.800 C 201.172 122.800,200.478 122.174,200.006 121.409 C 199.533 120.644,199.023 120.056,198.873 120.103 C 197.792 120.438,193.961 118.982,193.753 118.157 C 193.396 116.732,193.800 116.465,195.691 116.875 C 196.631 117.078,197.776 117.239,198.235 117.232 M219.205 125.300 C 219.208 125.575,219.313 126.181,219.438 126.647 C 219.623 127.336,219.453 127.535,218.533 127.712 C 217.253 127.957,216.360 127.424,216.624 126.571 C 216.721 126.257,216.884 125.730,216.987 125.400 C 217.213 124.678,219.198 124.588,219.205 125.300 M305.440 129.906 C 307.121 131.029,307.161 133.202,305.500 133.194 C 304.076 133.187,303.757 133.023,302.666 131.731 C 301.681 130.565,304.072 128.992,305.440 129.906 M390.400 132.449 C 390.400 132.642,390.149 132.800,389.843 132.800 C 389.242 132.800,388.704 131.829,389.091 131.443 C 389.373 131.160,390.400 131.950,390.400 132.449 M314.209 137.675 C 315.205 138.671,314.607 142.000,313.432 142.000 C 311.702 142.000,309.937 139.383,310.564 137.749 C 310.789 137.164,313.640 137.106,314.209 137.675 M323.834 139.833 C 323.852 140.585,323.717 141.200,323.534 141.200 C 323.350 141.200,323.200 141.476,323.200 141.813 C 323.200 142.149,322.954 142.520,322.653 142.635 C 322.281 142.778,322.019 143.952,321.833 146.322 C 321.423 151.522,321.078 152.476,319.150 153.738 C 317.023 155.131,317.000 155.093,317.000 150.243 C 317.000 146.365,317.057 146.085,318.100 144.846 C 318.891 143.906,319.200 143.098,319.200 141.969 C 319.200 140.841,319.369 140.400,319.800 140.400 C 320.130 140.400,320.401 140.175,320.403 139.900 C 320.407 139.321,322.347 138.320,322.856 138.635 C 323.045 138.752,323.200 138.627,323.200 138.357 C 323.200 137.192,323.803 138.597,323.834 139.833 M326.269 155.931 C 326.526 156.956,325.641 158.000,324.514 158.000 C 323.689 158.000,323.073 155.997,323.566 154.915 C 324.102 153.739,325.887 154.410,326.269 155.931 M2.800 163.753 C 2.800 164.058,2.440 164.401,2.000 164.516 C 1.225 164.719,0.885 164.049,1.467 163.467 C 1.937 162.996,2.800 163.182,2.800 163.753 M398.662 236.183 C 398.380 236.917,397.156 237.022,397.300 236.300 C 397.398 235.808,398.458 235.174,398.749 235.433 C 398.832 235.506,398.792 235.843,398.662 236.183 M7.200 256.767 C 7.200 256.969,7.316 257.464,7.459 257.867 C 7.670 258.464,7.618 258.508,7.183 258.104 C 6.546 257.514,6.319 256.400,6.835 256.400 C 7.036 256.400,7.200 256.565,7.200 256.767 M391.819 262.267 C 391.808 262.853,391.575 263.408,391.300 263.500 C 390.659 263.714,390.644 262.316,391.280 261.680 C 391.544 261.416,391.777 261.200,391.799 261.200 C 391.820 261.200,391.829 261.680,391.819 262.267 M325.800 264.801 C 326.690 266.240,326.119 268.400,324.850 268.400 C 323.730 268.400,323.079 266.580,323.616 264.952 C 324.059 263.611,325.024 263.544,325.800 264.801 M318.195 272.408 C 318.085 272.586,318.160 272.792,318.361 272.866 C 319.443 273.262,319.159 276.819,318.069 276.534 C 316.435 276.107,315.464 273.057,316.667 272.127 C 317.311 271.629,318.537 271.854,318.195 272.408 M91.726 283.249 C 92.935 283.870,94.800 285.657,94.800 286.194 C 94.800 286.439,95.424 287.260,96.187 288.019 C 98.551 290.372,97.382 290.519,93.190 288.396 C 91.718 287.650,90.615 287.346,89.888 287.485 C 88.614 287.729,87.619 287.058,87.807 286.083 C 87.880 285.707,87.953 285.289,87.969 285.154 C 88.170 283.543,90.247 282.489,91.726 283.249 M319.400 287.200 C 319.264 287.420,319.313 287.600,319.510 287.600 C 319.915 287.600,319.861 288.646,319.400 289.733 C 318.768 291.222,316.400 291.154,316.400 289.647 C 316.400 288.528,317.369 287.200,318.033 287.411 C 318.418 287.533,318.848 287.445,318.990 287.216 C 319.131 286.987,319.337 286.800,319.447 286.800 C 319.557 286.800,319.536 286.980,319.400 287.200 M382.000 287.751 C 382.000 287.834,381.730 288.126,381.400 288.400 C 380.909 288.808,380.800 288.780,380.800 288.249 C 380.800 287.892,381.070 287.600,381.400 287.600 C 381.730 287.600,382.000 287.668,382.000 287.751 M305.924 289.673 C 306.011 290.429,305.804 290.877,305.225 291.187 C 304.218 291.726,302.185 291.508,302.240 290.866 C 302.262 290.610,302.307 290.158,302.340 289.861 C 302.519 288.252,305.740 288.083,305.924 289.673 M20.800 291.449 C 20.800 291.980,20.691 292.008,20.200 291.600 C 19.870 291.326,19.600 291.034,19.600 290.951 C 19.600 290.868,19.870 290.800,20.200 290.800 C 20.530 290.800,20.800 291.092,20.800 291.449 M366.880 312.880 C 366.227 313.533,366.277 314.000,367.000 314.000 C 367.333 314.000,367.600 313.644,367.600 313.200 C 367.600 312.268,367.526 312.234,366.880 312.880 M359.519 323.182 C 358.967 324.066,358.578 323.955,358.938 323.017 C 359.068 322.678,359.362 322.400,359.591 322.400 C 359.854 322.400,359.828 322.687,359.519 323.182 M67.597 350.789 C 68.048 351.075,68.081 351.279,67.732 351.628 C 67.184 352.176,66.400 351.792,66.400 350.976 C 66.400 350.311,66.753 350.256,67.597 350.789 M333.600 350.976 C 333.600 351.803,332.771 352.200,332.376 351.562 C 332.175 351.237,332.233 350.900,332.521 350.717 C 333.248 350.254,333.600 350.339,333.600 350.976 M77.600 359.833 C 77.600 360.540,76.739 360.417,76.492 359.675 C 76.405 359.414,76.618 359.200,76.967 359.200 C 77.315 359.200,77.600 359.485,77.600 359.833 M323.508 359.675 C 323.261 360.417,322.400 360.540,322.400 359.833 C 322.400 359.485,322.685 359.200,323.033 359.200 C 323.382 359.200,323.595 359.414,323.508 359.675 M84.583 364.372 C 84.984 365.021,84.113 365.218,83.596 364.596 C 83.194 364.111,83.219 364.000,83.727 364.000 C 84.071 364.000,84.456 364.168,84.583 364.372 M316.800 364.151 C 316.800 364.234,316.530 364.526,316.200 364.800 C 315.709 365.208,315.600 365.180,315.600 364.649 C 315.600 364.292,315.870 364.000,316.200 364.000 C 316.530 364.000,316.800 364.068,316.800 364.151 M292.000 379.351 C 292.000 379.434,291.730 379.726,291.400 380.000 C 290.909 380.408,290.800 380.380,290.800 379.849 C 290.800 379.492,291.070 379.200,291.400 379.200 C 291.730 379.200,292.000 379.268,292.000 379.351 M124.506 385.839 C 124.637 385.971,124.652 386.319,124.539 386.614 C 124.283 387.282,123.200 386.913,123.200 386.157 C 123.200 385.599,124.057 385.390,124.506 385.839 M276.957 386.169 C 276.593 387.115,275.600 387.275,275.600 386.387 C 275.600 385.871,275.871 385.600,276.387 385.600 C 276.904 385.600,277.100 385.796,276.957 386.169 M235.021 398.092 C 234.647 398.302,234.224 398.357,234.082 398.215 C 233.730 397.863,234.869 397.195,235.332 397.482 C 235.536 397.608,235.396 397.882,235.021 398.092 " stroke="none" fill="#232c33" fill-rule="evenodd"></path><path id="path2" d="M165.867 1.067 C 165.460 1.473,165.549 2.000,166.024 2.000 C 166.257 2.000,166.344 1.833,166.218 1.629 C 166.091 1.424,166.396 1.179,166.894 1.083 C 167.728 0.923,167.734 0.905,166.967 0.854 C 166.508 0.825,166.013 0.920,165.867 1.067 M233.200 1.200 C 233.750 1.376,233.981 1.538,233.713 1.560 C 233.444 1.582,233.327 1.867,233.452 2.192 C 233.682 2.791,235.600 2.898,235.600 2.313 C 235.600 2.141,235.409 2.000,235.176 2.000 C 234.943 2.000,234.881 1.792,235.038 1.538 C 235.209 1.263,235.149 1.185,234.889 1.345 C 234.651 1.492,234.342 1.430,234.204 1.207 C 234.066 0.983,233.558 0.818,233.076 0.840 C 232.261 0.877,232.269 0.902,233.200 1.200 M157.700 2.676 C 158.085 2.776,158.715 2.776,159.100 2.676 C 159.485 2.575,159.170 2.493,158.400 2.493 C 157.630 2.493,157.315 2.575,157.700 2.676 M240.900 2.676 C 241.285 2.776,241.915 2.776,242.300 2.676 C 242.685 2.575,242.370 2.493,241.600 2.493 C 240.830 2.493,240.515 2.575,240.900 2.676 M255.494 6.239 C 255.057 6.677,255.675 7.600,256.405 7.600 C 256.928 7.600,257.068 7.381,256.916 6.800 C 256.714 6.029,255.990 5.743,255.494 6.239 M132.386 9.817 C 132.003 10.279,131.989 10.531,132.334 10.820 C 132.586 11.033,132.711 11.091,132.611 10.951 C 132.510 10.810,132.608 10.358,132.828 9.947 C 133.313 9.041,133.086 8.974,132.386 9.817 M274.500 12.699 C 274.665 12.791,274.800 13.102,274.800 13.391 C 274.800 13.983,275.665 14.400,276.894 14.400 C 277.701 14.400,277.698 14.379,276.800 13.600 C 276.293 13.160,275.740 12.800,275.572 12.800 C 275.403 12.800,275.026 12.740,274.733 12.666 C 274.440 12.592,274.335 12.607,274.500 12.699 M123.200 13.600 L 122.278 14.400 123.292 14.400 C 123.970 14.400,124.376 14.135,124.516 13.600 C 124.631 13.160,124.589 12.800,124.424 12.800 C 124.258 12.800,123.707 13.160,123.200 13.600 M112.432 18.100 C 112.414 18.485,112.209 18.800,111.976 18.800 C 111.743 18.800,111.681 18.592,111.838 18.338 C 112.022 18.041,111.947 17.985,111.627 18.183 C 111.269 18.404,111.252 18.612,111.565 18.925 C 112.121 19.481,112.986 18.710,112.677 17.935 C 112.532 17.573,112.453 17.627,112.432 18.100 M303.219 26.200 C 303.383 27.063,303.169 27.370,302.800 26.800 C 302.567 26.439,302.410 26.390,302.406 26.676 C 302.397 27.396,303.211 27.749,303.715 27.245 C 304.042 26.918,304.025 26.667,303.651 26.300 C 303.372 26.025,303.177 25.980,303.219 26.200 M83.600 35.400 C 83.192 35.891,83.220 36.000,83.751 36.000 C 84.108 36.000,84.400 35.730,84.400 35.400 C 84.400 35.070,84.332 34.800,84.249 34.800 C 84.166 34.800,83.874 35.070,83.600 35.400 M77.100 39.632 C 76.194 40.160,76.201 40.800,77.114 40.800 C 77.562 40.800,77.829 40.501,77.829 40.000 C 77.829 39.560,77.822 39.205,77.814 39.212 C 77.806 39.219,77.485 39.408,77.100 39.632 M322.400 40.167 C 322.400 40.515,322.685 40.800,323.033 40.800 C 323.382 40.800,323.595 40.586,323.508 40.325 C 323.261 39.583,322.400 39.460,322.400 40.167 M332.000 47.738 C 332.000 47.882,332.360 48.360,332.800 48.800 C 333.240 49.240,333.600 49.448,333.600 49.262 C 333.600 49.076,333.240 48.598,332.800 48.200 C 332.360 47.802,332.000 47.594,332.000 47.738 M337.499 53.257 C 337.608 53.672,337.900 54.129,338.148 54.270 C 338.397 54.412,338.467 54.381,338.303 54.201 C 338.140 54.021,338.189 53.654,338.412 53.386 C 338.703 53.035,338.603 52.842,338.059 52.700 C 337.472 52.546,337.346 52.672,337.499 53.257 M54.659 59.504 C 54.424 59.886,55.400 61.267,55.696 60.971 C 56.003 60.664,55.574 59.200,55.177 59.200 C 54.996 59.200,54.763 59.337,54.659 59.504 M43.796 72.807 C 43.658 73.030,43.349 73.092,43.111 72.945 C 42.858 72.788,42.791 72.862,42.951 73.121 C 43.103 73.367,42.774 73.860,42.213 74.228 C 41.656 74.593,41.200 75.149,41.200 75.464 C 41.200 75.779,40.758 76.478,40.218 77.018 C 39.156 78.080,39.213 78.235,40.426 77.586 C 40.852 77.358,41.200 76.900,41.200 76.568 C 41.200 76.216,41.491 76.014,41.900 76.082 C 42.359 76.160,42.642 75.904,42.722 75.341 C 42.790 74.868,43.195 74.390,43.622 74.278 C 44.080 74.159,44.400 73.730,44.400 73.237 C 44.400 72.324,44.188 72.173,43.796 72.807 M357.000 74.306 C 357.220 74.468,357.400 74.960,357.400 75.400 C 357.400 75.918,357.631 76.162,358.054 76.093 C 358.695 75.988,359.371 76.999,359.030 77.551 C 358.935 77.705,359.284 77.866,359.804 77.909 L 360.751 77.987 359.775 77.012 C 359.239 76.475,358.800 75.765,358.800 75.432 C 358.800 75.100,358.452 74.642,358.026 74.414 C 357.144 73.942,356.397 73.863,357.000 74.306 M37.600 81.151 C 37.600 81.417,37.292 81.582,36.915 81.518 C 36.533 81.452,36.169 81.692,36.093 82.059 C 35.900 82.993,37.318 82.802,37.709 81.842 C 37.878 81.425,37.923 80.990,37.809 80.875 C 37.694 80.761,37.600 80.885,37.600 81.151 M33.150 86.267 C 33.123 86.340,33.075 86.535,33.044 86.700 C 33.013 86.865,32.837 87.237,32.654 87.527 C 32.470 87.816,32.428 88.161,32.560 88.293 C 32.692 88.425,32.800 88.323,32.800 88.067 C 32.800 87.810,33.160 87.600,33.600 87.600 C 34.109 87.600,34.400 87.333,34.400 86.867 C 34.400 86.276,33.338 85.766,33.150 86.267 M31.600 88.946 C 31.600 89.232,31.870 89.467,32.200 89.467 C 32.530 89.467,32.800 89.336,32.800 89.176 C 32.800 89.016,32.530 88.782,32.200 88.655 C 31.856 88.523,31.600 88.647,31.600 88.946 M372.600 96.400 C 372.464 96.620,372.734 96.800,373.200 96.800 C 373.666 96.800,373.936 96.620,373.800 96.400 C 373.664 96.180,373.394 96.000,373.200 96.000 C 373.006 96.000,372.736 96.180,372.600 96.400 M108.931 103.629 C 108.328 104.232,109.173 105.906,110.212 106.167 C 112.293 106.690,114.113 104.517,112.374 103.586 C 111.412 103.071,109.465 103.095,108.931 103.629 M376.700 103.685 C 376.590 103.971,376.748 104.435,377.050 104.718 C 377.505 105.143,377.579 105.093,377.477 104.426 C 377.317 103.378,376.951 103.029,376.700 103.685 M86.080 104.080 C 84.799 105.361,86.245 107.791,87.912 107.158 C 89.091 106.709,90.400 105.662,90.400 105.167 C 90.400 103.867,87.118 103.042,86.080 104.080 M98.016 104.475 C 96.499 106.103,97.717 108.301,99.873 107.828 C 101.622 107.444,103.082 105.822,102.410 105.012 C 102.131 104.675,102.059 104.387,102.251 104.372 C 102.443 104.356,102.240 104.189,101.800 104.000 C 100.362 103.382,98.858 103.571,98.016 104.475 M194.789 103.859 C 193.602 104.181,193.009 105.671,193.829 106.271 C 195.542 107.524,199.164 106.614,198.575 105.079 C 198.365 104.532,196.293 103.520,195.640 103.646 C 195.508 103.672,195.125 103.767,194.789 103.859 M183.647 108.754 C 183.218 109.032,183.526 109.526,185.019 110.956 C 187.154 113.002,188.138 113.245,188.846 111.900 C 189.106 111.405,189.468 110.902,189.650 110.783 C 189.832 110.663,190.030 110.123,190.090 109.583 C 190.208 108.529,185.021 107.862,183.647 108.754 M88.810 112.988 C 88.266 113.643,88.886 115.394,89.785 115.739 C 90.454 115.996,92.000 115.257,92.000 114.680 C 92.000 114.500,92.180 114.464,92.400 114.600 C 92.632 114.743,92.800 114.359,92.800 113.687 C 92.800 112.395,89.746 111.860,88.810 112.988 M193.754 116.875 C 192.907 118.245,196.849 120.731,198.873 120.103 C 199.023 120.056,199.533 120.644,200.006 121.409 C 200.478 122.174,201.172 122.800,201.548 122.800 C 201.960 122.800,202.256 123.142,202.295 123.664 C 202.331 124.139,202.592 124.672,202.876 124.847 C 203.161 125.023,203.414 125.399,203.439 125.683 C 203.580 127.271,204.134 128.058,204.955 127.838 C 205.420 127.713,205.946 127.608,206.125 127.605 C 206.758 127.595,205.963 124.622,204.554 121.731 C 203.259 119.076,203.014 118.800,201.946 118.800 C 201.297 118.800,200.385 118.444,199.918 118.010 C 199.452 117.575,198.694 117.225,198.235 117.232 C 197.776 117.239,196.631 117.078,195.691 116.875 C 194.643 116.647,193.894 116.647,193.754 116.875 M216.987 125.400 C 216.884 125.730,216.721 126.257,216.624 126.571 C 216.360 127.424,217.253 127.957,218.533 127.712 C 219.453 127.535,219.623 127.336,219.438 126.647 C 219.313 126.181,219.208 125.575,219.205 125.300 C 219.198 124.588,217.213 124.678,216.987 125.400 M303.066 130.247 C 301.950 130.851,301.943 130.875,302.666 131.731 C 304.791 134.247,307.733 133.720,306.340 131.074 C 305.495 129.469,304.817 129.297,303.066 130.247 M389.057 132.204 C 389.239 132.680,389.395 132.732,389.607 132.388 C 389.824 132.037,389.961 132.031,390.122 132.365 C 390.259 132.651,390.302 132.631,390.237 132.310 C 390.180 132.030,389.834 131.742,389.468 131.671 C 388.992 131.579,388.875 131.730,389.057 132.204 M9.600 132.600 C 9.286 132.978,9.259 133.200,9.527 133.200 C 9.761 133.200,10.066 133.017,10.204 132.793 C 10.342 132.570,10.651 132.508,10.889 132.655 C 11.149 132.815,11.209 132.737,11.038 132.462 C 10.652 131.837,10.197 131.881,9.600 132.600 M8.014 137.174 C 7.402 138.317,7.469 139.007,8.137 138.452 C 8.432 138.207,8.770 138.103,8.887 138.220 C 9.004 138.338,9.188 137.976,9.295 137.417 C 9.530 136.186,8.634 136.016,8.014 137.174 M390.800 137.151 C 390.800 138.081,391.817 139.020,392.183 138.428 C 392.487 137.935,391.733 136.400,391.186 136.400 C 390.974 136.400,390.800 136.738,390.800 137.151 M310.564 137.749 C 309.937 139.383,311.702 142.000,313.432 142.000 C 314.607 142.000,315.205 138.671,314.209 137.675 C 313.640 137.106,310.789 137.164,310.564 137.749 M323.200 138.357 C 323.200 138.627,323.045 138.752,322.856 138.635 C 322.347 138.320,320.407 139.321,320.403 139.900 C 320.401 140.175,320.130 140.400,319.800 140.400 C 319.369 140.400,319.200 140.841,319.200 141.969 C 319.200 143.098,318.891 143.906,318.100 144.846 C 317.057 146.085,317.000 146.365,317.000 150.243 C 317.000 155.093,317.023 155.131,319.150 153.738 C 321.078 152.476,321.423 151.522,321.833 146.322 C 322.019 143.952,322.281 142.778,322.653 142.635 C 322.954 142.520,323.200 142.149,323.200 141.813 C 323.200 141.476,323.350 141.200,323.534 141.200 C 323.944 141.200,323.915 138.581,323.500 138.166 C 323.335 138.001,323.200 138.087,323.200 138.357 M6.421 142.361 C 6.067 143.022,6.129 143.091,6.897 142.891 C 7.382 142.764,7.558 142.586,7.287 142.496 C 7.016 142.405,6.897 142.167,7.021 141.966 C 7.145 141.765,7.153 141.600,7.038 141.600 C 6.922 141.600,6.645 141.942,6.421 142.361 M7.004 143.606 C 7.244 143.994,7.147 144.065,6.645 143.873 C 6.237 143.716,6.058 143.770,6.203 144.005 C 6.514 144.508,7.600 144.523,7.600 144.024 C 7.600 143.817,7.392 143.519,7.138 143.362 C 6.831 143.172,6.786 143.254,7.004 143.606 M323.566 154.915 C 323.073 155.997,323.689 158.000,324.514 158.000 C 326.567 158.000,326.931 155.353,324.999 154.472 C 324.096 154.061,323.932 154.111,323.566 154.915 M1.174 164.268 C 0.951 164.856,0.844 165.621,0.937 165.968 C 1.038 166.344,1.126 166.220,1.154 165.663 C 1.182 165.086,1.508 164.645,2.000 164.516 C 2.933 164.272,3.088 163.200,2.190 163.200 C 1.855 163.200,1.397 163.681,1.174 164.268 M399.200 224.800 C 399.200 225.240,399.380 225.600,399.600 225.600 C 399.820 225.600,400.000 225.240,400.000 224.800 C 400.000 224.360,399.820 224.000,399.600 224.000 C 399.380 224.000,399.200 224.360,399.200 224.800 M398.200 235.350 C 397.194 235.943,396.945 236.909,397.844 236.731 C 398.210 236.659,398.659 236.195,398.842 235.700 C 399.025 235.205,399.135 234.818,399.087 234.839 C 399.039 234.861,398.640 235.091,398.200 235.350 M6.233 256.747 C 6.115 256.937,6.405 257.432,6.877 257.847 C 7.694 258.564,7.723 258.565,7.468 257.867 C 7.321 257.464,7.200 256.969,7.200 256.767 C 7.200 256.302,6.517 256.287,6.233 256.747 M391.280 261.680 C 390.706 262.254,390.640 263.600,391.186 263.600 C 391.398 263.600,391.775 263.221,392.023 262.757 C 392.556 261.761,392.002 260.958,391.280 261.680 M8.103 261.886 C 7.741 262.016,7.718 262.273,8.017 262.832 C 8.575 263.875,9.589 263.845,9.314 262.794 C 9.068 261.851,8.787 261.641,8.103 261.886 M323.616 264.952 C 322.811 267.390,324.858 269.734,325.973 267.651 C 326.651 266.383,326.115 264.704,324.808 264.004 C 324.171 263.664,323.995 263.804,323.616 264.952 M9.389 266.418 C 9.247 266.647,9.439 267.305,9.815 267.879 C 10.412 268.790,10.546 268.839,10.867 268.267 C 11.519 267.101,10.080 265.299,9.389 266.418 M316.667 272.127 C 315.464 273.057,316.435 276.107,318.069 276.534 C 319.159 276.819,319.443 273.262,318.361 272.866 C 318.160 272.792,318.085 272.586,318.195 272.408 C 318.537 271.854,317.311 271.629,316.667 272.127 M88.829 283.854 C 88.373 284.434,87.986 285.019,87.969 285.154 C 87.953 285.289,87.880 285.707,87.807 286.083 C 87.619 287.058,88.614 287.729,89.888 287.485 C 90.615 287.346,91.718 287.650,93.190 288.396 C 97.382 290.519,98.551 290.372,96.187 288.019 C 95.424 287.260,94.800 286.439,94.800 286.194 C 94.800 285.657,92.935 283.870,91.726 283.249 C 90.393 282.564,89.736 282.701,88.829 283.854 M318.990 287.216 C 318.848 287.445,318.418 287.533,318.033 287.411 C 317.369 287.200,316.400 288.528,316.400 289.647 C 316.400 291.154,318.768 291.222,319.400 289.733 C 319.861 288.646,319.915 287.600,319.510 287.600 C 319.313 287.600,319.264 287.420,319.400 287.200 C 319.536 286.980,319.557 286.800,319.447 286.800 C 319.337 286.800,319.131 286.987,318.990 287.216 M303.300 288.880 C 302.805 289.123,302.373 289.565,302.340 289.861 C 302.307 290.158,302.262 290.610,302.240 290.866 C 302.185 291.508,304.218 291.726,305.225 291.187 C 307.311 290.070,305.441 287.830,303.300 288.880 M26.178 302.835 C 26.031 303.074,26.110 303.470,26.355 303.715 C 26.682 304.042,26.800 303.926,26.800 303.280 C 26.800 302.314,26.592 302.165,26.178 302.835 M31.828 311.155 C 31.707 311.350,31.877 311.732,32.204 312.004 C 32.618 312.347,32.800 312.361,32.800 312.049 C 32.800 311.802,32.575 311.597,32.300 311.594 C 31.967 311.590,32.000 311.458,32.400 311.200 C 32.761 310.967,32.810 310.810,32.524 310.806 C 32.262 310.803,31.949 310.960,31.828 311.155 M367.797 311.130 C 368.134 311.467,367.135 312.400,366.436 312.400 C 366.057 312.400,365.744 312.745,365.710 313.200 C 365.677 313.640,365.819 314.000,366.025 314.000 C 366.231 314.000,366.400 313.809,366.400 313.576 C 366.400 313.343,366.625 313.282,366.900 313.441 C 367.175 313.599,367.262 313.577,367.094 313.392 C 366.926 313.207,367.246 312.578,367.805 311.994 C 368.547 311.220,368.657 310.933,368.211 310.933 C 367.875 310.933,367.688 311.022,367.797 311.130 M36.092 318.075 C 36.179 318.336,36.464 318.621,36.725 318.708 C 37.018 318.806,37.107 318.623,36.957 318.233 C 36.678 317.506,35.852 317.355,36.092 318.075 M358.916 323.200 C 358.800 323.643,358.370 324.000,357.953 324.000 C 357.467 324.000,357.200 324.283,357.200 324.800 C 357.200 325.240,356.941 325.600,356.624 325.600 C 356.307 325.600,355.936 325.781,355.799 326.001 C 355.502 326.481,356.712 326.333,357.700 325.768 C 358.528 325.295,360.092 322.400,359.519 322.400 C 359.303 322.400,359.031 322.760,358.916 323.200 M41.200 324.586 C 41.200 325.188,42.776 326.278,42.831 325.714 C 42.847 325.541,42.922 325.085,42.995 324.700 C 43.093 324.190,42.868 324.000,42.165 324.000 C 41.584 324.000,41.200 324.233,41.200 324.586 M55.259 340.668 C 55.621 340.764,56.010 341.193,56.122 341.621 C 56.233 342.050,56.526 342.400,56.772 342.400 C 57.045 342.400,56.964 342.012,56.563 341.400 C 56.203 340.850,55.614 340.421,55.254 340.446 C 54.654 340.489,54.655 340.507,55.259 340.668 M59.987 345.261 C 59.497 345.607,59.512 345.640,60.074 345.460 C 60.445 345.342,60.825 345.460,60.919 345.722 C 61.013 345.985,61.209 346.091,61.355 345.957 C 61.879 345.475,60.602 344.825,59.987 345.261 M61.676 346.427 C 61.310 347.013,61.307 347.178,61.663 347.101 C 61.922 347.046,62.354 347.421,62.622 347.935 C 62.903 348.475,63.218 348.694,63.367 348.453 C 63.509 348.223,63.919 348.148,64.278 348.285 C 64.715 348.453,64.835 348.381,64.642 348.068 C 64.483 347.811,64.025 347.600,63.625 347.600 C 62.688 347.600,61.743 346.552,62.464 346.312 C 62.769 346.210,62.806 346.051,62.560 345.899 C 62.340 345.763,61.942 346.001,61.676 346.427 M336.165 347.113 C 335.926 347.271,335.633 347.782,335.516 348.249 C 335.211 349.456,336.547 349.048,337.451 347.658 C 338.017 346.789,338.027 346.692,337.509 347.117 C 337.122 347.433,336.824 347.477,336.739 347.230 C 336.663 347.007,336.404 346.955,336.165 347.113 M66.400 350.751 C 66.400 351.416,67.504 352.078,67.804 351.593 C 67.956 351.347,67.972 351.039,67.840 350.907 C 67.708 350.775,67.600 350.887,67.600 351.157 C 67.600 351.427,67.417 351.534,67.193 351.396 C 66.970 351.258,66.891 350.977,67.017 350.772 C 67.144 350.568,67.057 350.400,66.824 350.400 C 66.591 350.400,66.400 350.558,66.400 350.751 M332.800 350.824 C 332.800 351.057,332.659 351.160,332.486 351.053 C 332.313 350.946,332.171 351.218,332.171 351.656 C 332.171 352.349,332.231 352.372,332.625 351.833 C 332.875 351.492,333.196 351.330,333.340 351.473 C 333.483 351.616,333.600 351.433,333.600 351.067 C 333.600 350.700,333.420 350.400,333.200 350.400 C 332.980 350.400,332.800 350.591,332.800 350.824 M76.492 359.675 C 76.739 360.417,77.600 360.540,77.600 359.833 C 77.600 359.485,77.315 359.200,76.967 359.200 C 76.618 359.200,76.405 359.414,76.492 359.675 M322.286 359.993 C 322.110 360.668,322.192 360.725,322.839 360.379 C 323.725 359.905,323.849 359.200,323.047 359.200 C 322.742 359.200,322.400 359.557,322.286 359.993 M83.596 364.596 C 83.868 364.923,84.253 365.091,84.452 364.968 C 84.962 364.652,84.474 364.000,83.727 364.000 C 83.219 364.000,83.194 364.111,83.596 364.596 M315.600 364.649 C 315.600 365.180,315.709 365.208,316.200 364.800 C 316.530 364.526,316.800 364.234,316.800 364.151 C 316.800 364.068,316.530 364.000,316.200 364.000 C 315.870 364.000,315.600 364.292,315.600 364.649 M96.800 372.800 C 97.349 373.155,97.079 373.378,96.270 373.237 C 96.089 373.206,96.047 373.353,96.178 373.565 C 96.309 373.776,96.759 373.923,97.178 373.892 C 98.048 373.826,97.574 372.395,96.686 372.406 C 96.381 372.410,96.423 372.556,96.800 372.800 M111.200 381.486 C 111.199 381.974,112.757 382.290,112.931 381.837 C 113.076 381.457,112.842 381.306,112.171 381.344 C 111.637 381.375,111.200 381.439,111.200 381.486 M123.200 386.157 C 123.200 386.913,124.283 387.282,124.539 386.614 C 124.781 385.983,124.477 385.600,123.733 385.600 C 123.440 385.600,123.200 385.851,123.200 386.157 M275.600 386.387 C 275.600 386.904,275.796 387.100,276.169 386.957 C 277.115 386.593,277.275 385.600,276.387 385.600 C 275.871 385.600,275.600 385.871,275.600 386.387 M132.190 389.217 C 131.814 389.824,132.725 390.756,133.627 390.688 C 134.634 390.612,134.587 390.354,133.411 389.499 C 132.789 389.047,132.357 388.947,132.190 389.217 M143.357 393.033 C 143.491 393.381,143.603 393.786,143.606 393.933 C 143.614 394.291,144.386 393.083,144.394 392.700 C 144.397 392.535,144.111 392.400,143.757 392.400 C 143.335 392.400,143.198 392.618,143.357 393.033 M164.247 397.779 C 164.343 398.028,164.998 398.275,165.704 398.329 C 166.728 398.407,166.886 398.326,166.488 397.928 C 165.851 397.291,164.013 397.169,164.247 397.779 M234.392 397.605 C 233.595 398.098,234.189 398.558,235.021 398.092 C 235.396 397.882,235.536 397.608,235.332 397.482 C 235.129 397.356,234.706 397.411,234.392 397.605 " stroke="none" fill="#2c2c31" fill-rule="evenodd"></path><path id="path3" d="M108.400 110.208 C 101.249 111.692,96.173 115.466,92.460 122.059 C 89.404 127.486,89.600 122.180,89.600 199.613 L 89.600 268.698 90.613 271.802 C 93.937 281.983,100.674 287.370,111.400 288.423 C 116.268 288.901,285.455 288.841,291.473 288.359 C 299.501 287.716,305.801 283.235,309.764 275.348 C 312.120 270.660,312.050 272.844,311.920 208.600 L 311.800 149.400 310.136 146.000 C 308.505 142.669,307.999 141.930,305.548 139.301 C 298.619 131.868,300.020 132.038,245.388 132.011 C 221.537 131.999,201.613 131.832,201.111 131.640 C 200.610 131.448,195.880 126.943,190.600 121.627 C 185.320 116.312,180.190 111.477,179.200 110.882 L 177.400 109.800 144.200 109.734 C 117.693 109.682,110.476 109.778,108.400 110.208 M179.404 112.000 C 181.645 113.323,183.352 114.901,189.000 120.877 C 190.320 122.274,191.940 123.873,192.600 124.431 C 193.260 124.988,195.048 126.827,196.574 128.517 C 200.806 133.206,195.710 132.768,247.800 132.924 C 301.844 133.085,297.544 132.583,304.776 139.582 C 307.998 142.700,308.426 143.298,309.654 146.400 L 311.000 149.800 311.200 208.400 C 311.418 272.323,311.481 270.280,309.139 274.921 C 305.930 281.278,302.360 284.558,296.046 286.949 L 293.800 287.800 202.603 287.906 C 98.925 288.026,107.911 288.313,101.800 284.693 C 95.223 280.796,93.105 277.994,91.153 270.600 C 89.985 266.175,89.992 131.722,91.161 127.152 C 93.124 119.478,99.476 113.072,107.000 111.179 C 109.573 110.532,112.521 110.480,143.416 110.537 L 177.032 110.600 179.404 112.000 " stroke="none" fill="#246494" fill-rule="evenodd"></path><path id="path4" d="M290.800 20.200 C 290.800 20.530,291.092 20.800,291.449 20.800 C 291.980 20.800,292.008 20.691,291.600 20.200 C 291.326 19.870,291.034 19.600,290.951 19.600 C 290.868 19.600,290.800 19.870,290.800 20.200 M310.860 31.980 C 311.032 32.496,311.581 32.588,311.630 32.110 C 311.647 31.951,311.444 31.748,311.180 31.660 C 310.916 31.572,310.772 31.716,310.860 31.980 M66.639 48.338 C 66.500 48.561,66.582 48.865,66.820 49.012 C 67.435 49.393,67.832 48.872,67.318 48.358 C 67.031 48.071,66.807 48.064,66.639 48.338 M332.588 48.420 C 332.207 49.035,332.728 49.432,333.242 48.918 C 333.529 48.631,333.536 48.407,333.262 48.239 C 333.039 48.100,332.735 48.182,332.588 48.420 M110.200 108.407 C 104.004 109.005,100.224 110.694,96.600 114.488 C 91.845 119.465,91.042 120.651,89.075 125.600 L 88.200 127.800 88.090 198.800 L 87.979 269.800 88.854 272.200 C 89.334 273.520,89.938 274.870,90.195 275.200 C 90.452 275.530,91.137 276.790,91.717 278.000 C 94.158 283.093,101.240 288.769,105.200 288.806 C 105.970 288.813,107.938 289.175,109.573 289.609 C 112.738 290.451,285.868 290.849,290.400 290.025 C 291.390 289.845,293.550 289.476,295.200 289.205 C 300.014 288.414,308.800 282.277,308.800 279.706 C 308.800 279.496,309.160 278.998,309.600 278.600 C 310.040 278.202,310.400 277.658,310.400 277.392 C 310.400 277.126,310.728 276.479,311.128 275.954 C 311.528 275.429,312.251 273.807,312.735 272.349 L 313.615 269.699 313.612 209.661 L 313.608 149.623 311.676 145.907 C 307.806 138.464,304.687 135.296,298.091 132.107 L 295.800 131.000 249.080 130.877 L 202.361 130.755 199.280 127.672 C 197.586 125.977,194.878 123.522,193.262 122.218 C 191.646 120.914,189.846 119.211,189.262 118.434 C 187.132 115.601,181.513 110.539,178.849 109.054 C 177.301 108.190,118.217 107.634,110.200 108.407 M179.630 110.557 C 180.603 111.193,183.937 114.253,187.037 117.357 C 197.587 127.919,200.599 130.753,201.726 131.177 C 202.491 131.464,216.969 131.609,246.926 131.629 C 271.167 131.645,291.900 131.810,293.000 131.996 C 300.849 133.321,305.938 137.167,310.268 145.043 C 312.919 149.866,312.787 146.496,312.794 209.400 C 312.801 277.461,313.165 273.038,306.944 280.580 C 302.051 286.512,298.795 288.183,290.977 288.775 C 283.360 289.351,116.460 289.362,110.851 288.786 C 99.128 287.583,90.630 279.704,89.203 268.714 C 88.542 263.623,88.689 133.700,89.361 129.563 C 90.761 120.939,96.791 113.368,104.400 110.681 C 108.552 109.215,106.179 109.295,143.830 109.350 L 177.859 109.400 179.630 110.557 M396.000 155.184 C 396.000 155.633,396.169 156.000,396.376 156.000 C 397.039 156.000,397.134 155.416,396.558 154.884 C 396.094 154.456,396.000 154.507,396.000 155.184 M19.600 290.951 C 19.600 291.034,19.870 291.326,20.200 291.600 C 20.691 292.008,20.800 291.980,20.800 291.449 C 20.800 291.092,20.530 290.800,20.200 290.800 C 19.870 290.800,19.600 290.868,19.600 290.951 M66.617 351.172 C 66.344 351.614,66.975 352.092,67.344 351.722 C 67.725 351.342,67.654 350.800,67.224 350.800 C 67.017 350.800,66.744 350.968,66.617 351.172 M290.800 379.849 C 290.800 380.380,290.909 380.408,291.400 380.000 C 291.730 379.726,292.000 379.434,292.000 379.351 C 292.000 379.268,291.730 379.200,291.400 379.200 C 291.070 379.200,290.800 379.492,290.800 379.849 " stroke="none" fill="#224463" fill-rule="evenodd"></path><path id="path5" d="M108.600 109.471 C 99.442 110.625,91.005 119.435,89.361 129.563 C 88.689 133.700,88.542 263.623,89.203 268.714 C 90.630 279.704,99.128 287.583,110.851 288.786 C 115.140 289.226,287.936 289.402,287.500 288.966 C 287.371 288.838,248.596 288.751,201.333 288.774 C 147.756 288.800,113.894 288.668,111.400 288.423 C 100.674 287.370,93.937 281.983,90.613 271.802 L 89.600 268.698 89.600 199.613 C 89.600 132.007,89.617 130.461,90.394 127.423 C 92.189 120.405,98.067 113.511,104.088 111.362 C 108.117 109.924,109.356 109.859,137.200 109.620 L 165.000 109.382 137.400 109.351 C 122.220 109.334,109.260 109.388,108.600 109.471 M166.800 109.546 C 165.768 109.698,167.645 109.809,171.200 109.806 C 179.153 109.798,178.383 109.329,190.600 121.627 C 195.880 126.943,200.610 131.448,201.111 131.640 C 201.613 131.832,221.537 131.999,245.388 132.011 C 300.020 132.038,298.619 131.868,305.548 139.301 C 307.999 141.930,308.505 142.669,310.136 146.000 L 311.800 149.400 311.920 208.600 C 312.050 272.844,312.120 270.660,309.764 275.348 C 305.863 283.111,299.520 287.683,291.653 288.402 L 287.800 288.755 292.120 288.580 C 299.803 288.269,306.244 283.641,310.344 275.486 C 312.873 270.458,312.800 272.407,312.794 209.400 C 312.787 146.496,312.919 149.866,310.268 145.043 C 305.938 137.167,300.849 133.321,293.000 131.996 C 291.900 131.810,271.167 131.645,246.926 131.629 C 216.969 131.609,202.491 131.464,201.726 131.177 C 200.599 130.753,197.587 127.919,187.037 117.357 C 178.789 109.100,176.312 108.144,166.800 109.546 " stroke="none" fill="#114c74" fill-rule="evenodd"></path><path id="path6" d="M377.856 105.078 C 377.405 105.528,377.581 106.000,378.200 106.000 C 378.530 106.000,378.800 105.831,378.800 105.624 C 378.800 105.119,378.175 104.758,377.856 105.078 M107.000 111.179 C 99.476 113.072,93.124 119.478,91.161 127.152 C 89.992 131.722,89.985 266.175,91.153 270.600 C 93.105 277.994,95.223 280.796,101.800 284.693 C 107.911 288.313,98.925 288.026,202.603 287.906 L 293.800 287.800 296.046 286.949 C 302.360 284.558,305.930 281.278,309.139 274.921 C 311.481 270.280,311.418 272.323,311.200 208.400 L 311.000 149.800 309.654 146.400 C 308.426 143.298,307.998 142.700,304.776 139.582 C 297.544 132.583,301.844 133.085,247.800 132.924 C 195.710 132.768,200.806 133.206,196.574 128.517 C 195.048 126.827,193.260 124.988,192.600 124.431 C 191.940 123.873,190.320 122.274,189.000 120.877 C 183.352 114.901,181.645 113.323,179.404 112.000 L 177.032 110.600 143.416 110.537 C 112.521 110.480,109.573 110.532,107.000 111.179 M178.618 112.155 C 179.268 112.570,184.030 117.179,189.200 122.397 C 194.370 127.614,199.132 132.225,199.782 132.642 C 200.920 133.372,202.698 133.408,247.182 133.616 L 293.400 133.832 296.051 134.720 C 302.549 136.897,308.192 143.140,310.078 150.237 C 310.880 153.253,310.840 265.808,310.036 269.798 C 308.572 277.067,302.289 284.380,295.800 286.370 C 292.789 287.293,115.342 287.538,109.251 286.627 C 100.443 285.310,94.573 279.867,91.533 270.200 C 90.646 267.378,90.557 134.979,91.439 130.000 C 93.078 120.744,98.973 114.078,107.400 111.950 C 111.838 110.830,176.835 111.017,178.618 112.155 M0.000 226.600 C 0.000 226.930,0.180 227.200,0.400 227.200 C 0.620 227.200,0.800 226.930,0.800 226.600 C 0.800 226.270,0.620 226.000,0.400 226.000 C 0.180 226.000,0.000 226.270,0.000 226.600 M105.078 377.856 C 104.758 378.175,105.119 378.800,105.624 378.800 C 105.831 378.800,106.000 378.530,106.000 378.200 C 106.000 377.581,105.528 377.405,105.078 377.856 M294.000 378.200 C 294.000 378.567,294.194 378.802,294.430 378.723 C 294.666 378.645,294.860 378.409,294.860 378.200 C 294.860 377.991,294.666 377.755,294.430 377.677 C 294.194 377.598,294.000 377.833,294.000 378.200 " stroke="none" fill="#345c9c" fill-rule="evenodd"></path></g></svg>